<?xml version="1.0" encoding="UTF-8" standalone="no"?>
<!DOCTYPE svg PUBLIC "-//W3C//DTD SVG 1.1//EN"
 "http://www.w3.org/Graphics/SVG/1.1/DTD/svg11.dtd">
<!-- Generated by graphviz version 13.0.0 (20250608.1624)
 -->
<!-- Title: G Pages: 1 -->
<svg width="3139pt" height="2529pt"
 viewBox="0.00 0.00 3139.00 2529.00" xmlns="http://www.w3.org/2000/svg" xmlns:xlink="http://www.w3.org/1999/xlink">
<g id="graph0" class="graph" transform="scale(1 1) rotate(0) translate(4 2524.5)">
<title>G</title>
<polygon fill="LightGrey" stroke="none" points="-4,4 -4,-2524.5 3135,-2524.5 3135,4 -4,4"/>
<text xml:space="preserve" text-anchor="start" x="1185.62" y="-2458.6" font-family="Helvetica,sans-Serif" font-weight="bold" font-size="62.00">Geo Coordinate Classifier</text>
<text xml:space="preserve" text-anchor="start" x="1427.12" y="-2396.6" font-family="Helvetica,sans-Serif" font-weight="bold" font-size="62.00">Workflow</text>
<g id="clust1" class="cluster">
<title>cluster_ml_workflow</title>
<path fill="#e0ffe0" stroke="black" stroke-width="3" d="M20,-1263.75C20,-1263.75 480,-1263.75 480,-1263.75 486,-1263.75 492,-1269.75 492,-1275.75 492,-1275.75 492,-2368.5 492,-2368.5 492,-2374.5 486,-2380.5 480,-2380.5 480,-2380.5 20,-2380.5 20,-2380.5 14,-2380.5 8,-2374.5 8,-2368.5 8,-2368.5 8,-1275.75 8,-1275.75 8,-1269.75 14,-1263.75 20,-1263.75"/>
<text xml:space="preserve" text-anchor="middle" x="250" y="-2342.3" font-family="Helvetica,sans-Serif" font-size="36.00">ML Workflow</text>
</g>
<g id="clust2" class="cluster">
<title>cluster_model</title>
<path fill="#76d6ff" stroke="Gray" stroke-width="3" d="M20,-377C20,-377 1179,-377 1179,-377 1185,-377 1191,-383 1191,-389 1191,-389 1191,-1152.5 1191,-1152.5 1191,-1158.5 1185,-1164.5 1179,-1164.5 1179,-1164.5 20,-1164.5 20,-1164.5 14,-1164.5 8,-1158.5 8,-1152.5 8,-1152.5 8,-389 8,-389 8,-383 14,-377 20,-377"/>
<text xml:space="preserve" text-anchor="middle" x="599.5" y="-1126.3" font-family="Helvetica,sans-Serif" font-size="36.00">Model Conversion Workflow</text>
</g>
<g id="clust5" class="cluster">
<title>cluster_app</title>
<path fill="#00f900" stroke="Gray" stroke-width="3" d="M1295,-8C1295,-8 2103,-8 2103,-8 2109,-8 2115,-14 2115,-20 2115,-20 2115,-888.25 2115,-888.25 2115,-894.25 2109,-900.25 2103,-900.25 2103,-900.25 1295,-900.25 1295,-900.25 1289,-900.25 1283,-894.25 1283,-888.25 1283,-888.25 1283,-20 1283,-20 1283,-14 1289,-8 1295,-8"/>
<text xml:space="preserve" text-anchor="middle" x="1699" y="-862.05" font-family="Helvetica,sans-Serif" font-size="36.00">Swift Application Architecture</text>
</g>
<g id="clust7" class="cluster">
<title>cluster_platforms</title>
<path fill="#f4fb7f" stroke="Gray" stroke-width="3" d="M2219,-373.75C2219,-373.75 3111,-373.75 3111,-373.75 3117,-373.75 3123,-379.75 3123,-385.75 3123,-385.75 3123,-501 3123,-501 3123,-507 3117,-513 3111,-513 3111,-513 2219,-513 2219,-513 2213,-513 2207,-507 2207,-501 2207,-501 2207,-385.75 2207,-385.75 2207,-379.75 2213,-373.75 2219,-373.75"/>
<text xml:space="preserve" text-anchor="middle" x="2665" y="-474.8" font-family="Helvetica,sans-Serif" font-size="36.00">Multi&#45;Platform Support</text>
</g>
<!-- data_prep -->
<g id="node1" class="node">
<title>data_prep</title>
<path fill="#c2f0c2" stroke="black" d="M472.12,-2327.75C472.12,-2327.75 27.87,-2327.75 27.87,-2327.75 21.88,-2327.75 15.88,-2321.75 15.88,-2315.75 15.88,-2315.75 15.88,-2261.25 15.88,-2261.25 15.88,-2255.25 21.88,-2249.25 27.88,-2249.25 27.88,-2249.25 472.12,-2249.25 472.12,-2249.25 478.12,-2249.25 484.12,-2255.25 484.12,-2261.25 484.12,-2261.25 484.12,-2315.75 484.12,-2315.75 484.12,-2321.75 478.12,-2327.75 472.12,-2327.75"/>
<text xml:space="preserve" text-anchor="middle" x="250" y="-2290.5" font-family="Helvetica,sans-Serif" font-size="35.00">Data Preparation</text>
<text xml:space="preserve" text-anchor="middle" x="250" y="-2255.25" font-family="Helvetica,sans-Serif" font-size="35.00">(Cleaning, Split, DataLoader)</text>
</g>
<!-- model_arch -->
<g id="node2" class="node">
<title>model_arch</title>
<path fill="#c2f0c2" stroke="black" d="M471.75,-2089.25C471.75,-2089.25 28.25,-2089.25 28.25,-2089.25 22.25,-2089.25 16.25,-2083.25 16.25,-2077.25 16.25,-2077.25 16.25,-2022.75 16.25,-2022.75 16.25,-2016.75 22.25,-2010.75 28.25,-2010.75 28.25,-2010.75 471.75,-2010.75 471.75,-2010.75 477.75,-2010.75 483.75,-2016.75 483.75,-2022.75 483.75,-2022.75 483.75,-2077.25 483.75,-2077.25 483.75,-2083.25 477.75,-2089.25 471.75,-2089.25"/>
<text xml:space="preserve" text-anchor="middle" x="250" y="-2052" font-family="Helvetica,sans-Serif" font-size="35.00">Model Architecture</text>
<text xml:space="preserve" text-anchor="middle" x="250" y="-2016.75" font-family="Helvetica,sans-Serif" font-size="35.00">(Define Net, Loss, Optimizer)</text>
</g>
<!-- data_prep&#45;&gt;model_arch -->
<g id="edge1" class="edge">
<title>data_prep&#45;&gt;model_arch</title>
<path fill="none" stroke="Green" stroke-width="3.5" d="M250,-2248.98C250,-2209.72 250,-2148.53 250,-2104.56"/>
<polygon fill="Green" stroke="Green" stroke-width="3.5" points="253.5,-2104.81 250,-2094.81 246.5,-2104.81 253.5,-2104.81"/>
<text xml:space="preserve" text-anchor="middle" x="361.75" y="-2155.75" font-family="Times,serif" font-size="30.00">Preprocessed Data</text>
</g>
<!-- training -->
<g id="node3" class="node">
<title>training</title>
<path fill="#c2f0c2" stroke="black" d="M360.75,-1850.75C360.75,-1850.75 85.25,-1850.75 85.25,-1850.75 79.25,-1850.75 73.25,-1844.75 73.25,-1838.75 73.25,-1838.75 73.25,-1784.25 73.25,-1784.25 73.25,-1778.25 79.25,-1772.25 85.25,-1772.25 85.25,-1772.25 360.75,-1772.25 360.75,-1772.25 366.75,-1772.25 372.75,-1778.25 372.75,-1784.25 372.75,-1784.25 372.75,-1838.75 372.75,-1838.75 372.75,-1844.75 366.75,-1850.75 360.75,-1850.75"/>
<text xml:space="preserve" text-anchor="middle" x="223" y="-1813.5" font-family="Helvetica,sans-Serif" font-size="35.00">Training Loop</text>
<text xml:space="preserve" text-anchor="middle" x="223" y="-1778.25" font-family="Helvetica,sans-Serif" font-size="35.00">(Fit on Train Data)</text>
</g>
<!-- model_arch&#45;&gt;training -->
<g id="edge2" class="edge">
<title>model_arch&#45;&gt;training</title>
<path fill="none" stroke="Green" stroke-width="3.5" d="M245.6,-2010.48C241.12,-1971.22 234.13,-1910.03 229.12,-1866.06"/>
<polygon fill="Green" stroke="Green" stroke-width="3.5" points="232.61,-1865.81 228,-1856.27 225.65,-1866.6 232.61,-1865.81"/>
<text xml:space="preserve" text-anchor="middle" x="338.62" y="-1917.25" font-family="Times,serif" font-size="30.00">Trainable Model</text>
</g>
<!-- evaluation -->
<g id="node4" class="node">
<title>evaluation</title>
<path fill="#c2f0c2" stroke="black" d="M451.62,-1612.25C451.62,-1612.25 28.37,-1612.25 28.37,-1612.25 22.37,-1612.25 16.38,-1606.25 16.38,-1600.25 16.38,-1600.25 16.38,-1545.75 16.38,-1545.75 16.38,-1539.75 22.38,-1533.75 28.38,-1533.75 28.38,-1533.75 451.62,-1533.75 451.62,-1533.75 457.62,-1533.75 463.62,-1539.75 463.62,-1545.75 463.62,-1545.75 463.62,-1600.25 463.62,-1600.25 463.62,-1606.25 457.62,-1612.25 451.62,-1612.25"/>
<text xml:space="preserve" text-anchor="middle" x="240" y="-1575" font-family="Helvetica,sans-Serif" font-size="35.00">Evaluation &amp; Tuning</text>
<text xml:space="preserve" text-anchor="middle" x="240" y="-1539.75" font-family="Helvetica,sans-Serif" font-size="35.00">(Validate/Test Performance)</text>
</g>
<!-- training&#45;&gt;evaluation -->
<g id="edge3" class="edge">
<title>training&#45;&gt;evaluation</title>
<path fill="none" stroke="Green" stroke-width="3.5" d="M225.77,-1771.98C228.59,-1732.72 232.99,-1671.53 236.15,-1627.56"/>
<polygon fill="Green" stroke="Green" stroke-width="3.5" points="239.63,-1628.02 236.85,-1617.79 232.64,-1627.51 239.63,-1628.02"/>
<text xml:space="preserve" text-anchor="middle" x="376.52" y="-1678.75" font-family="Times,serif" font-size="30.00">Trained PyTorch Model</text>
</g>
<!-- pytorch -->
<g id="node5" class="node">
<title>pytorch</title>
<path fill="white" stroke="black" d="M338,-1343.75C338,-1343.75 110,-1343.75 110,-1343.75 104,-1343.75 98,-1337.75 98,-1331.75 98,-1331.75 98,-1283.75 98,-1283.75 98,-1277.75 104,-1271.75 110,-1271.75 110,-1271.75 338,-1271.75 338,-1271.75 344,-1271.75 350,-1277.75 350,-1283.75 350,-1283.75 350,-1331.75 350,-1331.75 350,-1337.75 344,-1343.75 338,-1343.75"/>
<text xml:space="preserve" text-anchor="middle" x="224" y="-1292.12" font-family="Helvetica,sans-Serif" font-size="35.00">PyTorch Model</text>
</g>
<!-- evaluation&#45;&gt;pytorch -->
<g id="edge4" class="edge">
<title>evaluation&#45;&gt;pytorch</title>
<path fill="none" stroke="blue" stroke-width="3" d="M237.66,-1533.44C234.84,-1487.04 230.1,-1409.04 227.01,-1358.23"/>
<polygon fill="blue" stroke="blue" stroke-width="3" points="230.52,-1358.34 226.42,-1348.57 223.53,-1358.77 230.52,-1358.34"/>
<text xml:space="preserve" text-anchor="middle" x="363.56" y="-1440.25" font-family="Times,serif" font-size="30.00">Final PyTorch Model</text>
<text xml:space="preserve" text-anchor="middle" x="363.56" y="-1410.25" font-family="Times,serif" font-size="30.00">(Export/Serialization)</text>
</g>
<!-- coremlModel32 -->
<g id="node6" class="node">
<title>coremlModel32</title>
<path fill="white" stroke="black" d="M339.25,-1111.75C339.25,-1111.75 108.75,-1111.75 108.75,-1111.75 102.75,-1111.75 96.75,-1105.75 96.75,-1099.75 96.75,-1099.75 96.75,-1045.25 96.75,-1045.25 96.75,-1039.25 102.75,-1033.25 108.75,-1033.25 108.75,-1033.25 339.25,-1033.25 339.25,-1033.25 345.25,-1033.25 351.25,-1039.25 351.25,-1045.25 351.25,-1045.25 351.25,-1099.75 351.25,-1099.75 351.25,-1105.75 345.25,-1111.75 339.25,-1111.75"/>
<text xml:space="preserve" text-anchor="middle" x="224" y="-1074.5" font-family="Helvetica,sans-Serif" font-size="35.00">Core ML Model</text>
<text xml:space="preserve" text-anchor="middle" x="224" y="-1039.25" font-family="Helvetica,sans-Serif" font-size="35.00">(32&#45;bit)</text>
</g>
<!-- pytorch&#45;&gt;coremlModel32 -->
<g id="edge5" class="edge">
<title>pytorch&#45;&gt;coremlModel32</title>
<path fill="none" stroke="Green" stroke-width="3.5" d="M224,-1271.32C224,-1232.99 224,-1171.42 224,-1127.14"/>
<polygon fill="Green" stroke="Green" stroke-width="3.5" points="227.5,-1127.28 224,-1117.28 220.5,-1127.28 227.5,-1127.28"/>
<text xml:space="preserve" text-anchor="middle" x="343.62" y="-1178.25" font-family="Times,serif" font-size="30.00">coremltools.convert</text>
</g>
<!-- onnx32 -->
<g id="node9" class="node">
<title>onnx32</title>
<path fill="white" stroke="black" d="M690,-1111.75C690,-1111.75 462,-1111.75 462,-1111.75 456,-1111.75 450,-1105.75 450,-1099.75 450,-1099.75 450,-1045.25 450,-1045.25 450,-1039.25 456,-1033.25 462,-1033.25 462,-1033.25 690,-1033.25 690,-1033.25 696,-1033.25 702,-1039.25 702,-1045.25 702,-1045.25 702,-1099.75 702,-1099.75 702,-1105.75 696,-1111.75 690,-1111.75"/>
<text xml:space="preserve" text-anchor="middle" x="576" y="-1074.5" font-family="Helvetica,sans-Serif" font-size="35.00">ONNX Model</text>
<text xml:space="preserve" text-anchor="middle" x="576" y="-1039.25" font-family="Helvetica,sans-Serif" font-size="35.00">(32&#45;bit)</text>
</g>
<!-- pytorch&#45;&gt;onnx32 -->
<g id="edge9" class="edge">
<title>pytorch&#45;&gt;onnx32</title>
<path fill="none" stroke="Green" stroke-width="3.5" d="M350.26,-1273.94C394.55,-1258.38 442.74,-1236.52 481,-1206.75 509.13,-1184.86 532.51,-1152.42 549.03,-1125.03"/>
<polygon fill="Green" stroke="Green" stroke-width="3.5" points="551.91,-1127.04 553.92,-1116.63 545.86,-1123.51 551.91,-1127.04"/>
<text xml:space="preserve" text-anchor="middle" x="616.47" y="-1178.25" font-family="Times,serif" font-size="30.00">torch.onnx.export</text>
</g>
<!-- coremlModelNorm -->
<g id="node7" class="node">
<title>coremlModelNorm</title>
<path fill="white" stroke="black" d="M419.88,-758.75C419.88,-758.75 28.12,-758.75 28.12,-758.75 22.13,-758.75 16.12,-752.75 16.12,-746.75 16.12,-746.75 16.12,-692.25 16.12,-692.25 16.12,-686.25 22.12,-680.25 28.12,-680.25 28.12,-680.25 419.88,-680.25 419.88,-680.25 425.88,-680.25 431.88,-686.25 431.88,-692.25 431.88,-692.25 431.88,-746.75 431.88,-746.75 431.88,-752.75 425.88,-758.75 419.88,-758.75"/>
<text xml:space="preserve" text-anchor="middle" x="224" y="-721.5" font-family="Helvetica,sans-Serif" font-size="35.00">Core ML Model</text>
<text xml:space="preserve" text-anchor="middle" x="224" y="-686.25" font-family="Helvetica,sans-Serif" font-size="35.00">+ Normalization Metadata</text>
</g>
<!-- coremlModel32&#45;&gt;coremlModelNorm -->
<g id="edge6" class="edge">
<title>coremlModel32&#45;&gt;coremlModelNorm</title>
<path fill="none" stroke="Green" stroke-width="3.5" d="M224,-1032.93C224,-970.18 224,-845.83 224,-774.38"/>
<polygon fill="Green" stroke="Green" stroke-width="3.5" points="227.5,-774.43 224,-764.43 220.5,-774.43 227.5,-774.43"/>
<text xml:space="preserve" text-anchor="middle" x="336.88" y="-939.75" font-family="Times,serif" font-size="30.00">Add normalization</text>
<text xml:space="preserve" text-anchor="middle" x="336.88" y="-909.75" font-family="Times,serif" font-size="30.00">metadata</text>
</g>
<!-- coreml -->
<g id="node8" class="node">
<title>coreml</title>
<path fill="white" stroke="black" d="M612.75,-457C612.75,-457 235.25,-457 235.25,-457 229.25,-457 223.25,-451 223.25,-445 223.25,-445 223.25,-397 223.25,-397 223.25,-391 229.25,-385 235.25,-385 235.25,-385 612.75,-385 612.75,-385 618.75,-385 624.75,-391 624.75,-397 624.75,-397 624.75,-445 624.75,-445 624.75,-451 618.75,-457 612.75,-457"/>
<text xml:space="preserve" text-anchor="middle" x="424" y="-405.38" font-family="Helvetica,sans-Serif" font-size="35.00">GeoClassifier.mlpackage</text>
</g>
<!-- coremlModelNorm&#45;&gt;coreml -->
<g id="edge7" class="edge">
<title>coremlModelNorm&#45;&gt;coreml</title>
<path fill="none" stroke="Green" stroke-width="3.5" d="M139.49,-679.76C114.16,-663.64 89.39,-642.27 75.25,-615.25 56.71,-579.81 51.31,-557.3 75.25,-525.25 94.53,-499.44 153.84,-477.8 218.21,-461.11"/>
<polygon fill="Green" stroke="Green" stroke-width="3.5" points="218.91,-464.54 227.75,-458.7 217.2,-457.76 218.91,-464.54"/>
<text xml:space="preserve" text-anchor="middle" x="153.62" y="-556.75" font-family="Times,serif" font-size="30.00">Save (32&#45;bit)</text>
</g>
<!-- coremlModelNorm&#45;&gt;coreml -->
<g id="edge8" class="edge">
<title>coremlModelNorm&#45;&gt;coreml</title>
<path fill="none" stroke="gray" stroke-width="3.5" stroke-dasharray="5,2" d="M235.64,-680.07C249.2,-639.19 274.32,-573.83 309.5,-525.25 324.91,-503.97 345.35,-483.82 364.68,-467.07"/>
<polygon fill="gray" stroke="gray" stroke-width="3.5" points="366.76,-469.89 372.15,-460.77 362.25,-464.54 366.76,-469.89"/>
<text xml:space="preserve" text-anchor="middle" x="436.25" y="-556.75" font-family="Times,serif" font-size="30.00">Quantize (16/8/4&#45;bit)</text>
</g>
<!-- coreml_classifier -->
<g id="node14" class="node">
<title>coreml_classifier</title>
<path fill="#f0f0f0" stroke="black" d="M1673.25,-200.88C1673.25,-200.88 1394.75,-200.88 1394.75,-200.88 1388.75,-200.88 1382.75,-194.88 1382.75,-188.88 1382.75,-188.88 1382.75,-140.88 1382.75,-140.88 1382.75,-134.88 1388.75,-128.88 1394.75,-128.88 1394.75,-128.88 1673.25,-128.88 1673.25,-128.88 1679.25,-128.88 1685.25,-134.88 1685.25,-140.88 1685.25,-140.88 1685.25,-188.88 1685.25,-188.88 1685.25,-194.88 1679.25,-200.88 1673.25,-200.88"/>
<text xml:space="preserve" text-anchor="middle" x="1534" y="-149.25" font-family="Helvetica,sans-Serif" font-size="35.00">Core ML Classifier</text>
</g>
<!-- coreml&#45;&gt;coreml_classifier -->
<g id="edge16" class="edge">
<title>coreml&#45;&gt;coreml_classifier</title>
<path fill="none" stroke="Green" stroke-width="3.5" d="M578.92,-384.53C786.73,-336.96 1154.24,-252.82 1367.7,-203.95"/>
<polygon fill="Green" stroke="Green" stroke-width="3.5" points="1368.35,-207.39 1377.32,-201.75 1366.79,-200.57 1368.35,-207.39"/>
<text xml:space="preserve" text-anchor="middle" x="1010.88" y="-288.25" font-family="Times,serif" font-size="30.00">loads</text>
</g>
<!-- onnx -->
<g id="node10" class="node">
<title>onnx</title>
<path fill="white" stroke="black" d="M1095.25,-457C1095.25,-457 810.75,-457 810.75,-457 804.75,-457 798.75,-451 798.75,-445 798.75,-445 798.75,-397 798.75,-397 798.75,-391 804.75,-385 810.75,-385 810.75,-385 1095.25,-385 1095.25,-385 1101.25,-385 1107.25,-391 1107.25,-397 1107.25,-397 1107.25,-445 1107.25,-445 1107.25,-451 1101.25,-457 1095.25,-457"/>
<text xml:space="preserve" text-anchor="middle" x="953" y="-405.38" font-family="Helvetica,sans-Serif" font-size="35.00">GeoClassifier.onnx</text>
</g>
<!-- onnx32&#45;&gt;onnx -->
<g id="edge10" class="edge">
<title>onnx32&#45;&gt;onnx</title>
<path fill="none" stroke="Green" stroke-width="3.5" d="M572.39,-1032.98C567.32,-959.26 565.08,-795.31 630.5,-680.25 685.85,-582.9 793.64,-508.24 869.32,-464.8"/>
<polygon fill="Green" stroke="Green" stroke-width="3.5" points="870.98,-467.88 877.97,-459.92 867.54,-461.78 870.98,-467.88"/>
<text xml:space="preserve" text-anchor="middle" x="746.75" y="-706" font-family="Times,serif" font-size="30.00">Save (unquantized)</text>
</g>
<!-- onnx32&#45;&gt;onnx -->
<g id="edge11" class="edge">
<title>onnx32&#45;&gt;onnx</title>
<path fill="none" stroke="gray" stroke-width="3.5" stroke-dasharray="5,2" d="M694.78,-1032.85C758.83,-1005.83 833.45,-963.15 877,-900.25 968.72,-767.77 965.7,-565.59 958.39,-472.33"/>
<polygon fill="gray" stroke="gray" stroke-width="3.5" points="961.89,-472.22 957.55,-462.56 954.92,-472.82 961.89,-472.22"/>
<text xml:space="preserve" text-anchor="middle" x="1068.39" y="-706" font-family="Times,serif" font-size="30.00">Quantize (16/8&#45;bit)</text>
</g>
<!-- onnx_classifier -->
<g id="node13" class="node">
<title>onnx_classifier</title>
<path fill="#f0f0f0" stroke="black" d="M2002.75,-221.75C2002.75,-221.75 1769.25,-221.75 1769.25,-221.75 1763.25,-221.75 1757.25,-215.75 1757.25,-209.75 1757.25,-209.75 1757.25,-120 1757.25,-120 1757.25,-114 1763.25,-108 1769.25,-108 1769.25,-108 2002.75,-108 2002.75,-108 2008.75,-108 2014.75,-114 2014.75,-120 2014.75,-120 2014.75,-209.75 2014.75,-209.75 2014.75,-215.75 2008.75,-221.75 2002.75,-221.75"/>
<text xml:space="preserve" text-anchor="middle" x="1886" y="-184.5" font-family="Helvetica,sans-Serif" font-size="35.00">ONNX Runtime</text>
<text xml:space="preserve" text-anchor="middle" x="1886" y="-149.25" font-family="Helvetica,sans-Serif" font-size="35.00">Classifier</text>
<text xml:space="preserve" text-anchor="middle" x="1886" y="-114" font-family="Helvetica,sans-Serif" font-size="35.00">(C++ Backend)</text>
</g>
<!-- onnx&#45;&gt;onnx_classifier -->
<g id="edge15" class="edge">
<title>onnx&#45;&gt;onnx_classifier</title>
<path fill="none" stroke="Green" stroke-width="3.5" d="M1082.88,-384.56C1183.74,-357.24 1327.17,-318.84 1453.25,-286.75 1571.92,-256.54 1603.39,-255.87 1721,-221.75 1728.08,-219.7 1735.3,-217.53 1742.58,-215.29"/>
<polygon fill="Green" stroke="Green" stroke-width="3.5" points="1743.54,-218.65 1752.04,-212.33 1741.45,-211.97 1743.54,-218.65"/>
<text xml:space="preserve" text-anchor="middle" x="1485.12" y="-288.25" font-family="Times,serif" font-size="30.00">loads</text>
</g>
<!-- swift_app -->
<g id="node11" class="node">
<title>swift_app</title>
<path fill="#f0f0f0" stroke="black" d="M2003.12,-755.5C2003.12,-755.5 1756.88,-755.5 1756.88,-755.5 1750.88,-755.5 1744.88,-749.5 1744.88,-743.5 1744.88,-743.5 1744.88,-695.5 1744.88,-695.5 1744.88,-689.5 1750.88,-683.5 1756.88,-683.5 1756.88,-683.5 2003.12,-683.5 2003.12,-683.5 2009.12,-683.5 2015.12,-689.5 2015.12,-695.5 2015.12,-695.5 2015.12,-743.5 2015.12,-743.5 2015.12,-749.5 2009.12,-755.5 2003.12,-755.5"/>
<text xml:space="preserve" text-anchor="middle" x="1880" y="-703.88" font-family="Helvetica,sans-Serif" font-size="35.00">Swift Application</text>
</g>
<!-- classifier_protocol -->
<g id="node12" class="node">
<title>classifier_protocol</title>
<path fill="#f0f0f0" stroke="black" d="M1667.75,-457C1667.75,-457 1404.25,-457 1404.25,-457 1398.25,-457 1392.25,-451 1392.25,-445 1392.25,-445 1392.25,-397 1392.25,-397 1392.25,-391 1398.25,-385 1404.25,-385 1404.25,-385 1667.75,-385 1667.75,-385 1673.75,-385 1679.75,-391 1679.75,-397 1679.75,-397 1679.75,-445 1679.75,-445 1679.75,-451 1673.75,-457 1667.75,-457"/>
<text xml:space="preserve" text-anchor="middle" x="1536" y="-405.38" font-family="Helvetica,sans-Serif" font-size="35.00">ClassifierProtocol</text>
</g>
<!-- swift_app&#45;&gt;classifier_protocol -->
<g id="edge12" class="edge">
<title>swift_app&#45;&gt;classifier_protocol</title>
<path fill="none" stroke="Green" stroke-width="3.5" d="M1817.5,-683.02C1786.85,-664.44 1750.09,-640.36 1719.75,-615.25 1665.22,-570.11 1610.28,-509.95 1574.87,-468.82"/>
<polygon fill="Green" stroke="Green" stroke-width="3.5" points="1577.57,-466.59 1568.41,-461.25 1572.24,-471.13 1577.57,-466.59"/>
<text xml:space="preserve" text-anchor="middle" x="1791.38" y="-571.75" font-family="Times,serif" font-size="30.00">uses</text>
<text xml:space="preserve" text-anchor="middle" x="1791.38" y="-541.75" font-family="Times,serif" font-size="30.00">(decoupled)</text>
</g>
<!-- data_eval -->
<g id="node15" class="node">
<title>data_eval</title>
<path fill="#f0f0f0" stroke="black" d="M2002.38,-457C2002.38,-457 1763.62,-457 1763.62,-457 1757.62,-457 1751.62,-451 1751.62,-445 1751.62,-445 1751.62,-397 1751.62,-397 1751.62,-391 1757.62,-385 1763.62,-385 1763.62,-385 2002.38,-385 2002.38,-385 2008.38,-385 2014.38,-391 2014.38,-397 2014.38,-397 2014.38,-445 2014.38,-445 2014.38,-451 2008.38,-457 2002.38,-457"/>
<text xml:space="preserve" text-anchor="middle" x="1883" y="-405.38" font-family="Helvetica,sans-Serif" font-size="35.00">Evaluation Data</text>
</g>
<!-- swift_app&#45;&gt;data_eval -->
<g id="edge17" class="edge">
<title>swift_app&#45;&gt;data_eval</title>
<path fill="none" stroke="Green" stroke-width="3.5" d="M1880.36,-683.03C1880.89,-630.54 1881.89,-531.95 1882.49,-472.11"/>
<polygon fill="Green" stroke="Green" stroke-width="3.5" points="1885.99,-472.38 1882.59,-462.35 1878.99,-472.31 1885.99,-472.38"/>
<text xml:space="preserve" text-anchor="middle" x="1954.69" y="-586.75" font-family="Times,serif" font-size="30.00">evaluates</text>
<text xml:space="preserve" text-anchor="middle" x="1954.69" y="-556.75" font-family="Times,serif" font-size="30.00">models</text>
<text xml:space="preserve" text-anchor="middle" x="1954.69" y="-526.75" font-family="Times,serif" font-size="30.00">sequentially</text>
</g>
<!-- macos -->
<g id="node16" class="node">
<title>macos</title>
<path fill="#f0f0f0" stroke="black" d="M2455,-460.25C2455,-460.25 2227,-460.25 2227,-460.25 2221,-460.25 2215,-454.25 2215,-448.25 2215,-448.25 2215,-393.75 2215,-393.75 2215,-387.75 2221,-381.75 2227,-381.75 2227,-381.75 2455,-381.75 2455,-381.75 2461,-381.75 2467,-387.75 2467,-393.75 2467,-393.75 2467,-448.25 2467,-448.25 2467,-454.25 2461,-460.25 2455,-460.25"/>
<text xml:space="preserve" text-anchor="middle" x="2341" y="-423" font-family="Helvetica,sans-Serif" font-size="35.00">macOS App</text>
<text xml:space="preserve" text-anchor="middle" x="2341" y="-387.75" font-family="Helvetica,sans-Serif" font-size="35.00">&amp; CLI</text>
</g>
<!-- swift_app&#45;&gt;macos -->
<g id="edge18" class="edge">
<title>swift_app&#45;&gt;macos</title>
<path fill="none" stroke="Green" stroke-width="3.5" d="M1937.06,-683.17C1968.92,-663.35 2009.27,-638.09 2045,-615.25 2122.2,-565.9 2210.03,-508.39 2269.83,-469.01"/>
<polygon fill="Green" stroke="Green" stroke-width="3.5" points="2271.68,-471.99 2278.1,-463.56 2267.83,-466.14 2271.68,-471.99"/>
<text xml:space="preserve" text-anchor="middle" x="2240.95" y="-556.75" font-family="Times,serif" font-size="30.00">builds for</text>
</g>
<!-- ios -->
<g id="node17" class="node">
<title>ios</title>
<path fill="#f0f0f0" stroke="black" d="M2779,-457C2779,-457 2551,-457 2551,-457 2545,-457 2539,-451 2539,-445 2539,-445 2539,-397 2539,-397 2539,-391 2545,-385 2551,-385 2551,-385 2779,-385 2779,-385 2785,-385 2791,-391 2791,-397 2791,-397 2791,-445 2791,-445 2791,-451 2785,-457 2779,-457"/>
<text xml:space="preserve" text-anchor="middle" x="2665" y="-405.38" font-family="Helvetica,sans-Serif" font-size="35.00">iOS App</text>
</g>
<!-- swift_app&#45;&gt;ios -->
<g id="edge19" class="edge">
<title>swift_app&#45;&gt;ios</title>
<path fill="none" stroke="Green" stroke-width="3.5" d="M2015.25,-696.34C2103.05,-679.59 2218.96,-652.97 2317,-615.25 2405.04,-581.37 2420.54,-558.82 2503,-513 2531.23,-497.31 2562.16,-479.98 2589.35,-464.68"/>
<polygon fill="Green" stroke="Green" stroke-width="3.5" points="2590.76,-467.91 2597.76,-459.95 2587.33,-461.81 2590.76,-467.91"/>
<text xml:space="preserve" text-anchor="middle" x="2537.88" y="-556.75" font-family="Times,serif" font-size="30.00">builds for</text>
</g>
<!-- ios_simulator -->
<g id="node18" class="node">
<title>ios_simulator</title>
<path fill="#f0f0f0" stroke="black" d="M3103,-457C3103,-457 2875,-457 2875,-457 2869,-457 2863,-451 2863,-445 2863,-445 2863,-397 2863,-397 2863,-391 2869,-385 2875,-385 2875,-385 3103,-385 3103,-385 3109,-385 3115,-391 3115,-397 3115,-397 3115,-445 3115,-445 3115,-451 3109,-457 3103,-457"/>
<text xml:space="preserve" text-anchor="middle" x="2989" y="-405.38" font-family="Helvetica,sans-Serif" font-size="35.00">iOS Simulator</text>
</g>
<!-- swift_app&#45;&gt;ios_simulator -->
<g id="edge20" class="edge">
<title>swift_app&#45;&gt;ios_simulator</title>
<path fill="none" stroke="Green" stroke-width="3.5" d="M2015.6,-711.91C2164.96,-701.8 2410.91,-676.66 2614,-615.25 2729.07,-580.45 2850.75,-510.83 2923.25,-465.35"/>
<polygon fill="Green" stroke="Green" stroke-width="3.5" points="2924.71,-468.56 2931.29,-460.26 2920.97,-462.65 2924.71,-468.56"/>
<text xml:space="preserve" text-anchor="middle" x="2871.69" y="-556.75" font-family="Times,serif" font-size="30.00">builds for</text>
</g>
<!-- classifier_protocol&#45;&gt;onnx_classifier -->
<g id="edge13" class="edge">
<title>classifier_protocol&#45;&gt;onnx_classifier</title>
<path fill="none" stroke="Green" stroke-width="3.5" d="M1592.33,-384.54C1622.58,-365.1 1660.27,-340.25 1693,-316.75 1730.55,-289.79 1771,-258.53 1805.13,-231.48"/>
<polygon fill="Green" stroke="Green" stroke-width="3.5" points="1807.13,-234.36 1812.77,-225.4 1802.77,-228.88 1807.13,-234.36"/>
<text xml:space="preserve" text-anchor="middle" x="1800.89" y="-288.25" font-family="Times,serif" font-size="30.00">implements</text>
</g>
<!-- classifier_protocol&#45;&gt;coreml_classifier -->
<g id="edge14" class="edge">
<title>classifier_protocol&#45;&gt;coreml_classifier</title>
<path fill="none" stroke="Green" stroke-width="3.5" d="M1535.72,-384.67C1535.38,-340.98 1534.79,-266.31 1534.4,-216.54"/>
<polygon fill="Green" stroke="Green" stroke-width="3.5" points="1537.9,-216.59 1534.32,-206.62 1530.9,-216.64 1537.9,-216.59"/>
<text xml:space="preserve" text-anchor="middle" x="1605.3" y="-288.25" font-family="Times,serif" font-size="30.00">implements</text>
</g>
</g>
</svg>
