<?xml version="1.0" encoding="UTF-8" standalone="no"?>
<!DOCTYPE svg PUBLIC "-//W3C//DTD SVG 1.1//EN"
 "http://www.w3.org/Graphics/SVG/1.1/DTD/svg11.dtd">
<!-- Generated by graphviz version 13.0.0 (20250608.1624)
 -->
<!-- Title: G Pages: 1 -->
<svg width="3076pt" height="1248pt"
 viewBox="0.00 0.00 3076.00 1248.00" xmlns="http://www.w3.org/2000/svg" xmlns:xlink="http://www.w3.org/1999/xlink">
<g id="graph0" class="graph" transform="scale(1 1) rotate(0) translate(4 1243.5)">
<title>G</title>
<polygon fill="LightGrey" stroke="none" points="-4,4 -4,-1243.5 3072,-1243.5 3072,4 -4,4"/>
<text xml:space="preserve" text-anchor="middle" x="1534" y="-1201.3" font-family="Helvetica,sans-Serif" font-size="36.00">Geo Coordinate Classifier</text>
<text xml:space="preserve" text-anchor="middle" x="1534" y="-1164.55" font-family="Helvetica,sans-Serif" font-size="36.00">Workflow</text>
<g id="clust1" class="cluster">
<title>cluster_model</title>
<path fill="#76d6ff" stroke="Gray" stroke-width="3" d="M20,-301.25C20,-301.25 1116,-301.25 1116,-301.25 1122,-301.25 1128,-307.25 1128,-313.25 1128,-313.25 1128,-1138 1128,-1138 1128,-1144 1122,-1150 1116,-1150 1116,-1150 20,-1150 20,-1150 14,-1150 8,-1144 8,-1138 8,-1138 8,-313.25 8,-313.25 8,-307.25 14,-301.25 20,-301.25"/>
<text xml:space="preserve" text-anchor="middle" x="568" y="-1111.8" font-family="Helvetica,sans-Serif" font-size="36.00">Model Workflow</text>
</g>
<g id="clust4" class="cluster">
<title>cluster_app</title>
<path fill="#00f900" stroke="Gray" stroke-width="3" d="M1232,-8C1232,-8 2040,-8 2040,-8 2046,-8 2052,-14 2052,-20 2052,-20 2052,-761 2052,-761 2052,-767 2046,-773 2040,-773 2040,-773 1232,-773 1232,-773 1226,-773 1220,-767 1220,-761 1220,-761 1220,-20 1220,-20 1220,-14 1226,-8 1232,-8"/>
<text xml:space="preserve" text-anchor="middle" x="1636" y="-734.8" font-family="Helvetica,sans-Serif" font-size="36.00">Swift Application Architecture</text>
</g>
<g id="clust6" class="cluster">
<title>cluster_platforms</title>
<path fill="#f4fb7f" stroke="Gray" stroke-width="3" d="M2156,-298C2156,-298 3048,-298 3048,-298 3054,-298 3060,-304 3060,-310 3060,-310 3060,-425.25 3060,-425.25 3060,-431.25 3054,-437.25 3048,-437.25 3048,-437.25 2156,-437.25 2156,-437.25 2150,-437.25 2144,-431.25 2144,-425.25 2144,-425.25 2144,-310 2144,-310 2144,-304 2150,-298 2156,-298"/>
<text xml:space="preserve" text-anchor="middle" x="2602" y="-399.05" font-family="Helvetica,sans-Serif" font-size="36.00">Multi&#45;Platform Support</text>
</g>
<!-- pytorch -->
<g id="node1" class="node">
<title>pytorch</title>
<path fill="white" stroke="black" d="M506,-1097.25C506,-1097.25 278,-1097.25 278,-1097.25 272,-1097.25 266,-1091.25 266,-1085.25 266,-1085.25 266,-1037.25 266,-1037.25 266,-1031.25 272,-1025.25 278,-1025.25 278,-1025.25 506,-1025.25 506,-1025.25 512,-1025.25 518,-1031.25 518,-1037.25 518,-1037.25 518,-1085.25 518,-1085.25 518,-1091.25 512,-1097.25 506,-1097.25"/>
<text xml:space="preserve" text-anchor="middle" x="392" y="-1045.62" font-family="Helvetica,sans-Serif" font-size="35.00">PyTorch Model</text>
</g>
<!-- coremlModel32 -->
<g id="node2" class="node">
<title>coremlModel32</title>
<path fill="white" stroke="black" d="M359.25,-941C359.25,-941 128.75,-941 128.75,-941 122.75,-941 116.75,-935 116.75,-929 116.75,-929 116.75,-874.5 116.75,-874.5 116.75,-868.5 122.75,-862.5 128.75,-862.5 128.75,-862.5 359.25,-862.5 359.25,-862.5 365.25,-862.5 371.25,-868.5 371.25,-874.5 371.25,-874.5 371.25,-929 371.25,-929 371.25,-935 365.25,-941 359.25,-941"/>
<text xml:space="preserve" text-anchor="middle" x="244" y="-903.75" font-family="Helvetica,sans-Serif" font-size="35.00">Core ML Model</text>
<text xml:space="preserve" text-anchor="middle" x="244" y="-868.5" font-family="Helvetica,sans-Serif" font-size="35.00">(32&#45;bit)</text>
</g>
<!-- pytorch&#45;&gt;coremlModel32 -->
<g id="edge1" class="edge">
<title>pytorch&#45;&gt;coremlModel32</title>
<path fill="none" stroke="Green" stroke-width="3.5" d="M304.87,-1024.86C292.48,-1016.9 280.88,-1007.42 271.75,-996.25 262.37,-984.77 256.16,-970.2 252.04,-956"/>
<polygon fill="Green" stroke="Green" stroke-width="3.5" points="255.53,-955.5 249.74,-946.62 248.73,-957.17 255.53,-955.5"/>
<text xml:space="preserve" text-anchor="middle" x="374.88" y="-971.55" font-family="Times,serif" font-size="26.00">coremltools.convert</text>
</g>
<!-- onnx32 -->
<g id="node5" class="node">
<title>onnx32</title>
<path fill="white" stroke="black" d="M690,-941C690,-941 462,-941 462,-941 456,-941 450,-935 450,-929 450,-929 450,-874.5 450,-874.5 450,-868.5 456,-862.5 462,-862.5 462,-862.5 690,-862.5 690,-862.5 696,-862.5 702,-868.5 702,-874.5 702,-874.5 702,-929 702,-929 702,-935 696,-941 690,-941"/>
<text xml:space="preserve" text-anchor="middle" x="576" y="-903.75" font-family="Helvetica,sans-Serif" font-size="35.00">ONNX Model</text>
<text xml:space="preserve" text-anchor="middle" x="576" y="-868.5" font-family="Helvetica,sans-Serif" font-size="35.00">(32&#45;bit)</text>
</g>
<!-- pytorch&#45;&gt;onnx32 -->
<g id="edge5" class="edge">
<title>pytorch&#45;&gt;onnx32</title>
<path fill="none" stroke="Green" stroke-width="3.5" d="M453.08,-1024.86C466.4,-1016.15 480.06,-1006.39 492,-996.25 507.37,-983.19 522.6,-967.37 535.78,-952.49"/>
<polygon fill="Green" stroke="Green" stroke-width="3.5" points="538.05,-955.21 541.95,-945.36 532.76,-950.63 538.05,-955.21"/>
<text xml:space="preserve" text-anchor="middle" x="611.38" y="-971.55" font-family="Times,serif" font-size="26.00">torch.onnx.export</text>
</g>
<!-- coremlModelNorm -->
<g id="node3" class="node">
<title>coremlModelNorm</title>
<path fill="white" stroke="black" d="M419.88,-631.5C419.88,-631.5 28.12,-631.5 28.12,-631.5 22.13,-631.5 16.12,-625.5 16.12,-619.5 16.12,-619.5 16.12,-565 16.12,-565 16.12,-559 22.12,-553 28.12,-553 28.12,-553 419.88,-553 419.88,-553 425.88,-553 431.88,-559 431.88,-565 431.88,-565 431.88,-619.5 431.88,-619.5 431.88,-625.5 425.88,-631.5 419.88,-631.5"/>
<text xml:space="preserve" text-anchor="middle" x="224" y="-594.25" font-family="Helvetica,sans-Serif" font-size="35.00">Core ML Model</text>
<text xml:space="preserve" text-anchor="middle" x="224" y="-559" font-family="Helvetica,sans-Serif" font-size="35.00">+ Normalization Metadata</text>
</g>
<!-- coremlModel32&#45;&gt;coremlModelNorm -->
<g id="edge2" class="edge">
<title>coremlModel32&#45;&gt;coremlModelNorm</title>
<path fill="none" stroke="Green" stroke-width="3.5" d="M241.49,-862.12C237.95,-807.81 231.51,-708.66 227.5,-647.13"/>
<polygon fill="Green" stroke="Green" stroke-width="3.5" points="231,-647.01 226.86,-637.25 224.02,-647.46 231,-647.01"/>
<text xml:space="preserve" text-anchor="middle" x="336.67" y="-808.8" font-family="Times,serif" font-size="26.00">Add normalization</text>
<text xml:space="preserve" text-anchor="middle" x="336.67" y="-782.55" font-family="Times,serif" font-size="26.00">metadata</text>
</g>
<!-- coreml -->
<g id="node4" class="node">
<title>coreml</title>
<path fill="white" stroke="black" d="M609.75,-381.25C609.75,-381.25 232.25,-381.25 232.25,-381.25 226.25,-381.25 220.25,-375.25 220.25,-369.25 220.25,-369.25 220.25,-321.25 220.25,-321.25 220.25,-315.25 226.25,-309.25 232.25,-309.25 232.25,-309.25 609.75,-309.25 609.75,-309.25 615.75,-309.25 621.75,-315.25 621.75,-321.25 621.75,-321.25 621.75,-369.25 621.75,-369.25 621.75,-375.25 615.75,-381.25 609.75,-381.25"/>
<text xml:space="preserve" text-anchor="middle" x="421" y="-329.62" font-family="Helvetica,sans-Serif" font-size="35.00">GeoClassifier.mlpackage</text>
</g>
<!-- coremlModelNorm&#45;&gt;coreml -->
<g id="edge3" class="edge">
<title>coremlModelNorm&#45;&gt;coreml</title>
<path fill="none" stroke="Green" stroke-width="3.5" d="M146.67,-552.59C136.97,-544.48 128.4,-534.99 122.5,-524 105.94,-493.16 102.01,-473.63 122.5,-445.25 143.5,-416.17 173.37,-395.49 206.19,-380.82"/>
<polygon fill="Green" stroke="Green" stroke-width="3.5" points="207.14,-384.22 215.02,-377.14 204.45,-377.76 207.14,-384.22"/>
<text xml:space="preserve" text-anchor="middle" x="190.75" y="-473.05" font-family="Times,serif" font-size="26.00">Save (32&#45;bit)</text>
</g>
<!-- coremlModelNorm&#45;&gt;coreml -->
<g id="edge4" class="edge">
<title>coremlModelNorm&#45;&gt;coreml</title>
<path fill="none" stroke="gray" stroke-width="3.5" stroke-dasharray="5,2" d="M252.86,-552.72C275.28,-523.05 307.37,-481.16 336.5,-445.25 350.48,-428.02 366.16,-409.45 380.18,-393.09"/>
<polygon fill="gray" stroke="gray" stroke-width="3.5" points="382.73,-395.51 386.6,-385.64 377.42,-390.94 382.73,-395.51"/>
<text xml:space="preserve" text-anchor="middle" x="446.75" y="-473.05" font-family="Times,serif" font-size="26.00">Quantize (16/8/4&#45;bit)</text>
</g>
<!-- coreml_classifier -->
<g id="node10" class="node">
<title>coreml_classifier</title>
<path fill="#f0f0f0" stroke="black" d="M1610.25,-200.88C1610.25,-200.88 1331.75,-200.88 1331.75,-200.88 1325.75,-200.88 1319.75,-194.88 1319.75,-188.88 1319.75,-188.88 1319.75,-140.88 1319.75,-140.88 1319.75,-134.88 1325.75,-128.88 1331.75,-128.88 1331.75,-128.88 1610.25,-128.88 1610.25,-128.88 1616.25,-128.88 1622.25,-134.88 1622.25,-140.88 1622.25,-140.88 1622.25,-188.88 1622.25,-188.88 1622.25,-194.88 1616.25,-200.88 1610.25,-200.88"/>
<text xml:space="preserve" text-anchor="middle" x="1471" y="-149.25" font-family="Helvetica,sans-Serif" font-size="35.00">Core ML Classifier</text>
</g>
<!-- coreml&#45;&gt;coreml_classifier -->
<g id="edge12" class="edge">
<title>coreml&#45;&gt;coreml_classifier</title>
<path fill="none" stroke="Green" stroke-width="3.5" d="M622.21,-310.07C820.25,-276.43 1119.14,-225.65 1304.3,-194.19"/>
<polygon fill="Green" stroke="Green" stroke-width="3.5" points="1304.87,-197.65 1314.14,-192.52 1303.7,-190.75 1304.87,-197.65"/>
<text xml:space="preserve" text-anchor="middle" x="973" y="-252.3" font-family="Times,serif" font-size="26.00">loads</text>
</g>
<!-- onnx -->
<g id="node6" class="node">
<title>onnx</title>
<path fill="white" stroke="black" d="M1062.25,-381.25C1062.25,-381.25 777.75,-381.25 777.75,-381.25 771.75,-381.25 765.75,-375.25 765.75,-369.25 765.75,-369.25 765.75,-321.25 765.75,-321.25 765.75,-315.25 771.75,-309.25 777.75,-309.25 777.75,-309.25 1062.25,-309.25 1062.25,-309.25 1068.25,-309.25 1074.25,-315.25 1074.25,-321.25 1074.25,-321.25 1074.25,-369.25 1074.25,-369.25 1074.25,-375.25 1068.25,-381.25 1062.25,-381.25"/>
<text xml:space="preserve" text-anchor="middle" x="920" y="-329.62" font-family="Helvetica,sans-Serif" font-size="35.00">GeoClassifier.onnx</text>
</g>
<!-- onnx32&#45;&gt;onnx -->
<g id="edge6" class="edge">
<title>onnx32&#45;&gt;onnx</title>
<path fill="none" stroke="Green" stroke-width="3.5" d="M572.79,-862.22C569.04,-794.37 569.75,-651.41 630.5,-553 676.48,-478.51 760.29,-423.13 825.94,-388.53"/>
<polygon fill="Green" stroke="Green" stroke-width="3.5" points="827.24,-391.8 834.53,-384.1 824.03,-385.58 827.24,-391.8"/>
<text xml:space="preserve" text-anchor="middle" x="730.25" y="-580.67" font-family="Times,serif" font-size="26.00">Save (unquantized)</text>
</g>
<!-- onnx32&#45;&gt;onnx -->
<g id="edge7" class="edge">
<title>onnx32&#45;&gt;onnx</title>
<path fill="none" stroke="gray" stroke-width="3.5" stroke-dasharray="5,2" d="M702.47,-868.29C753.84,-848.84 809.17,-818.71 844,-773 929.77,-660.44 930.54,-482.98 924.91,-396.7"/>
<polygon fill="gray" stroke="gray" stroke-width="3.5" points="928.42,-396.69 924.19,-386.97 921.43,-397.2 928.42,-396.69"/>
<text xml:space="preserve" text-anchor="middle" x="1021.32" y="-580.67" font-family="Times,serif" font-size="26.00">Quantize (16/8&#45;bit)</text>
</g>
<!-- onnx_classifier -->
<g id="node9" class="node">
<title>onnx_classifier</title>
<path fill="#f0f0f0" stroke="black" d="M1939.75,-221.75C1939.75,-221.75 1706.25,-221.75 1706.25,-221.75 1700.25,-221.75 1694.25,-215.75 1694.25,-209.75 1694.25,-209.75 1694.25,-120 1694.25,-120 1694.25,-114 1700.25,-108 1706.25,-108 1706.25,-108 1939.75,-108 1939.75,-108 1945.75,-108 1951.75,-114 1951.75,-120 1951.75,-120 1951.75,-209.75 1951.75,-209.75 1951.75,-215.75 1945.75,-221.75 1939.75,-221.75"/>
<text xml:space="preserve" text-anchor="middle" x="1823" y="-184.5" font-family="Helvetica,sans-Serif" font-size="35.00">ONNX Runtime</text>
<text xml:space="preserve" text-anchor="middle" x="1823" y="-149.25" font-family="Helvetica,sans-Serif" font-size="35.00">Classifier</text>
<text xml:space="preserve" text-anchor="middle" x="1823" y="-114" font-family="Helvetica,sans-Serif" font-size="35.00">(C++ Backend)</text>
</g>
<!-- onnx&#45;&gt;onnx_classifier -->
<g id="edge11" class="edge">
<title>onnx&#45;&gt;onnx_classifier</title>
<path fill="none" stroke="Green" stroke-width="3.5" d="M1074.55,-310.87C1168.36,-291.42 1290.7,-267.51 1400,-250.75 1514.06,-233.26 1545.37,-246.84 1658,-221.75 1665.01,-220.19 1672.14,-218.43 1679.31,-216.54"/>
<polygon fill="Green" stroke="Green" stroke-width="3.5" points="1680.23,-219.92 1688.94,-213.88 1678.37,-213.17 1680.23,-219.92"/>
<text xml:space="preserve" text-anchor="middle" x="1427" y="-252.3" font-family="Times,serif" font-size="26.00">loads</text>
</g>
<!-- swift_app -->
<g id="node7" class="node">
<title>swift_app</title>
<path fill="#f0f0f0" stroke="black" d="M1940.12,-628.25C1940.12,-628.25 1693.88,-628.25 1693.88,-628.25 1687.88,-628.25 1681.88,-622.25 1681.88,-616.25 1681.88,-616.25 1681.88,-568.25 1681.88,-568.25 1681.88,-562.25 1687.88,-556.25 1693.88,-556.25 1693.88,-556.25 1940.12,-556.25 1940.12,-556.25 1946.12,-556.25 1952.12,-562.25 1952.12,-568.25 1952.12,-568.25 1952.12,-616.25 1952.12,-616.25 1952.12,-622.25 1946.12,-628.25 1940.12,-628.25"/>
<text xml:space="preserve" text-anchor="middle" x="1817" y="-576.62" font-family="Helvetica,sans-Serif" font-size="35.00">Swift Application</text>
</g>
<!-- classifier_protocol -->
<g id="node8" class="node">
<title>classifier_protocol</title>
<path fill="#f0f0f0" stroke="black" d="M1604.75,-381.25C1604.75,-381.25 1341.25,-381.25 1341.25,-381.25 1335.25,-381.25 1329.25,-375.25 1329.25,-369.25 1329.25,-369.25 1329.25,-321.25 1329.25,-321.25 1329.25,-315.25 1335.25,-309.25 1341.25,-309.25 1341.25,-309.25 1604.75,-309.25 1604.75,-309.25 1610.75,-309.25 1616.75,-315.25 1616.75,-321.25 1616.75,-321.25 1616.75,-369.25 1616.75,-369.25 1616.75,-375.25 1610.75,-381.25 1604.75,-381.25"/>
<text xml:space="preserve" text-anchor="middle" x="1473" y="-329.62" font-family="Helvetica,sans-Serif" font-size="35.00">ClassifierProtocol</text>
</g>
<!-- swift_app&#45;&gt;classifier_protocol -->
<g id="edge8" class="edge">
<title>swift_app&#45;&gt;classifier_protocol</title>
<path fill="none" stroke="Green" stroke-width="3.5" d="M1733.92,-555.88C1714.68,-546.47 1694.68,-535.64 1677,-524 1617.95,-485.12 1557.83,-430.52 1518.3,-392.13"/>
<polygon fill="Green" stroke="Green" stroke-width="3.5" points="1520.84,-389.71 1511.25,-385.21 1515.94,-394.71 1520.84,-389.71"/>
<text xml:space="preserve" text-anchor="middle" x="1738.5" y="-486.18" font-family="Times,serif" font-size="26.00">uses</text>
<text xml:space="preserve" text-anchor="middle" x="1738.5" y="-459.93" font-family="Times,serif" font-size="26.00">(decoupled)</text>
</g>
<!-- data_eval -->
<g id="node11" class="node">
<title>data_eval</title>
<path fill="#f0f0f0" stroke="black" d="M1939.38,-381.25C1939.38,-381.25 1700.62,-381.25 1700.62,-381.25 1694.62,-381.25 1688.62,-375.25 1688.62,-369.25 1688.62,-369.25 1688.62,-321.25 1688.62,-321.25 1688.62,-315.25 1694.62,-309.25 1700.62,-309.25 1700.62,-309.25 1939.38,-309.25 1939.38,-309.25 1945.38,-309.25 1951.38,-315.25 1951.38,-321.25 1951.38,-321.25 1951.38,-369.25 1951.38,-369.25 1951.38,-375.25 1945.38,-381.25 1939.38,-381.25"/>
<text xml:space="preserve" text-anchor="middle" x="1820" y="-329.62" font-family="Helvetica,sans-Serif" font-size="35.00">Evaluation Data</text>
</g>
<!-- swift_app&#45;&gt;data_eval -->
<g id="edge13" class="edge">
<title>swift_app&#45;&gt;data_eval</title>
<path fill="none" stroke="Green" stroke-width="3.5" d="M1817.43,-555.89C1817.94,-514.1 1818.8,-444.26 1819.38,-396.78"/>
<polygon fill="Green" stroke="Green" stroke-width="3.5" points="1822.88,-396.94 1819.5,-386.9 1815.88,-396.86 1822.88,-396.94"/>
<text xml:space="preserve" text-anchor="middle" x="1881.02" y="-499.3" font-family="Times,serif" font-size="26.00">evaluates</text>
<text xml:space="preserve" text-anchor="middle" x="1881.02" y="-473.05" font-family="Times,serif" font-size="26.00">models</text>
<text xml:space="preserve" text-anchor="middle" x="1881.02" y="-446.8" font-family="Times,serif" font-size="26.00">sequentially</text>
</g>
<!-- macos -->
<g id="node12" class="node">
<title>macos</title>
<path fill="#f0f0f0" stroke="black" d="M2392,-384.5C2392,-384.5 2164,-384.5 2164,-384.5 2158,-384.5 2152,-378.5 2152,-372.5 2152,-372.5 2152,-318 2152,-318 2152,-312 2158,-306 2164,-306 2164,-306 2392,-306 2392,-306 2398,-306 2404,-312 2404,-318 2404,-318 2404,-372.5 2404,-372.5 2404,-378.5 2398,-384.5 2392,-384.5"/>
<text xml:space="preserve" text-anchor="middle" x="2278" y="-347.25" font-family="Helvetica,sans-Serif" font-size="35.00">macOS App</text>
<text xml:space="preserve" text-anchor="middle" x="2278" y="-312" font-family="Helvetica,sans-Serif" font-size="35.00">&amp; CLI</text>
</g>
<!-- swift_app&#45;&gt;macos -->
<g id="edge14" class="edge">
<title>swift_app&#45;&gt;macos</title>
<path fill="none" stroke="Green" stroke-width="3.5" d="M1895.61,-555.82C1916.98,-545.84 1940.01,-534.77 1961,-524 2043.42,-481.72 2135.56,-429.48 2199.17,-392.6"/>
<polygon fill="Green" stroke="Green" stroke-width="3.5" points="2200.82,-395.69 2207.71,-387.64 2197.31,-389.63 2200.82,-395.69"/>
<text xml:space="preserve" text-anchor="middle" x="2151.66" y="-473.05" font-family="Times,serif" font-size="26.00">builds for</text>
</g>
<!-- ios -->
<g id="node13" class="node">
<title>ios</title>
<path fill="#f0f0f0" stroke="black" d="M2716,-381.25C2716,-381.25 2488,-381.25 2488,-381.25 2482,-381.25 2476,-375.25 2476,-369.25 2476,-369.25 2476,-321.25 2476,-321.25 2476,-315.25 2482,-309.25 2488,-309.25 2488,-309.25 2716,-309.25 2716,-309.25 2722,-309.25 2728,-315.25 2728,-321.25 2728,-321.25 2728,-369.25 2728,-369.25 2728,-375.25 2722,-381.25 2716,-381.25"/>
<text xml:space="preserve" text-anchor="middle" x="2602" y="-329.62" font-family="Helvetica,sans-Serif" font-size="35.00">iOS App</text>
</g>
<!-- swift_app&#45;&gt;ios -->
<g id="edge15" class="edge">
<title>swift_app&#45;&gt;ios</title>
<path fill="none" stroke="Green" stroke-width="3.5" d="M1952.42,-575.88C2031.36,-565.14 2132.34,-548.31 2220,-524 2321.28,-495.92 2345.07,-482.37 2440,-437.25 2470.17,-422.91 2502.44,-405.28 2530.17,-389.37"/>
<polygon fill="Green" stroke="Green" stroke-width="3.5" points="2531.91,-392.41 2538.81,-384.37 2528.4,-386.35 2531.91,-392.41"/>
<text xml:space="preserve" text-anchor="middle" x="2468.76" y="-473.05" font-family="Times,serif" font-size="26.00">builds for</text>
</g>
<!-- ios_simulator -->
<g id="node14" class="node">
<title>ios_simulator</title>
<path fill="#f0f0f0" stroke="black" d="M3040,-381.25C3040,-381.25 2812,-381.25 2812,-381.25 2806,-381.25 2800,-375.25 2800,-369.25 2800,-369.25 2800,-321.25 2800,-321.25 2800,-315.25 2806,-309.25 2812,-309.25 2812,-309.25 3040,-309.25 3040,-309.25 3046,-309.25 3052,-315.25 3052,-321.25 3052,-321.25 3052,-369.25 3052,-369.25 3052,-375.25 3046,-381.25 3040,-381.25"/>
<text xml:space="preserve" text-anchor="middle" x="2926" y="-329.62" font-family="Helvetica,sans-Serif" font-size="35.00">iOS Simulator</text>
</g>
<!-- swift_app&#45;&gt;ios_simulator -->
<g id="edge16" class="edge">
<title>swift_app&#45;&gt;ios_simulator</title>
<path fill="none" stroke="Green" stroke-width="3.5" d="M1952.44,-589.52C2098.49,-585.14 2336.95,-570.65 2537,-524 2642.18,-499.47 2666.21,-483.1 2764,-437.25 2794.51,-422.95 2827.09,-405.16 2854.98,-389.12"/>
<polygon fill="Green" stroke="Green" stroke-width="3.5" points="2856.37,-392.36 2863.26,-384.31 2852.86,-386.31 2856.37,-392.36"/>
<text xml:space="preserve" text-anchor="middle" x="2792.12" y="-473.05" font-family="Times,serif" font-size="26.00">builds for</text>
</g>
<!-- classifier_protocol&#45;&gt;onnx_classifier -->
<g id="edge9" class="edge">
<title>classifier_protocol&#45;&gt;onnx_classifier</title>
<path fill="none" stroke="Green" stroke-width="3.5" d="M1546.61,-308.87C1567.48,-298.71 1590.19,-287.52 1611,-277 1641.2,-261.73 1673.65,-244.93 1703.85,-229.11"/>
<polygon fill="Green" stroke="Green" stroke-width="3.5" points="1705.17,-232.37 1712.4,-224.63 1701.92,-226.17 1705.17,-232.37"/>
<text xml:space="preserve" text-anchor="middle" x="1718.07" y="-252.3" font-family="Times,serif" font-size="26.00">implements</text>
</g>
<!-- classifier_protocol&#45;&gt;coreml_classifier -->
<g id="edge10" class="edge">
<title>classifier_protocol&#45;&gt;coreml_classifier</title>
<path fill="none" stroke="Green" stroke-width="3.5" d="M1472.6,-309.01C1472.31,-282.59 1471.9,-246.05 1471.57,-216.5"/>
<polygon fill="Green" stroke="Green" stroke-width="3.5" points="1475.07,-216.6 1471.46,-206.64 1468.07,-216.68 1475.07,-216.6"/>
<text xml:space="preserve" text-anchor="middle" x="1532.61" y="-252.3" font-family="Times,serif" font-size="26.00">implements</text>
</g>
</g>
</svg>
