<?xml version="1.0" encoding="UTF-8" standalone="no"?>
<!DOCTYPE svg PUBLIC "-//W3C//DTD SVG 1.1//EN"
 "http://www.w3.org/Graphics/SVG/1.1/DTD/svg11.dtd">
<!-- Generated by graphviz version 13.0.0 (20250608.1624)
 -->
<!-- Title: G Pages: 1 -->
<svg width="1924pt" height="926pt"
 viewBox="0.00 0.00 1924.00 926.00" xmlns="http://www.w3.org/2000/svg" xmlns:xlink="http://www.w3.org/1999/xlink">
<g id="graph0" class="graph" transform="scale(1 1) rotate(0) translate(4 921.75)">
<title>G</title>
<text xml:space="preserve" text-anchor="middle" x="958" y="-879.55" font-family="Helvetica,sans-Serif" font-size="36.00">Geo Coordinate Classifier</text>
<text xml:space="preserve" text-anchor="middle" x="958" y="-842.8" font-family="Helvetica,sans-Serif" font-size="36.00">Workflow</text>
<g id="clust1" class="cluster">
<title>cluster_model</title>
<path fill="LawnGreen" stroke="LightGray" d="M20,-232C20,-232 534,-232 534,-232 540,-232 546,-238 546,-244 546,-244 546,-816.25 546,-816.25 546,-822.25 540,-828.25 534,-828.25 534,-828.25 20,-828.25 20,-828.25 14,-828.25 8,-822.25 8,-816.25 8,-816.25 8,-244 8,-244 8,-238 14,-232 20,-232"/>
<text xml:space="preserve" text-anchor="middle" x="277" y="-790.05" font-family="Helvetica,sans-Serif" font-size="36.00">Model Workflow</text>
</g>
<g id="clust2" class="cluster">
<title>cluster_app</title>
<path fill="LawnGreen" stroke="LightGray" d="M566,-8C566,-8 1080,-8 1080,-8 1086,-8 1092,-14 1092,-20 1092,-20 1092,-607 1092,-607 1092,-613 1086,-619 1080,-619 1080,-619 566,-619 566,-619 560,-619 554,-613 554,-607 554,-607 554,-20 554,-20 554,-14 560,-8 566,-8"/>
<text xml:space="preserve" text-anchor="middle" x="823" y="-580.8" font-family="Helvetica,sans-Serif" font-size="36.00">Swift Application Architecture</text>
</g>
<g id="clust4" class="cluster">
<title>cluster_platforms</title>
<path fill="LawnGreen" stroke="LightGray" d="M1112,-232C1112,-232 1896,-232 1896,-232 1902,-232 1908,-238 1908,-244 1908,-244 1908,-352.75 1908,-352.75 1908,-358.75 1902,-364.75 1896,-364.75 1896,-364.75 1112,-364.75 1112,-364.75 1106,-364.75 1100,-358.75 1100,-352.75 1100,-352.75 1100,-244 1100,-244 1100,-238 1106,-232 1112,-232"/>
<text xml:space="preserve" text-anchor="middle" x="1504" y="-326.55" font-family="Helvetica,sans-Serif" font-size="36.00">Multi&#45;Platform Support</text>
</g>
<!-- pytorch -->
<g id="node1" class="node">
<title>pytorch</title>
<polygon fill="#f0f0f0" stroke="black" points="403,-775.5 151,-775.5 151,-703.5 403,-703.5 403,-775.5"/>
<text xml:space="preserve" text-anchor="middle" x="277" y="-727.15" font-family="Helvetica,sans-Serif" font-size="28.00">PyTorch Model</text>
</g>
<!-- quantized -->
<g id="node4" class="node">
<title>quantized</title>
<polygon fill="#f0f0f0" stroke="black" points="403,-566.25 151,-566.25 151,-494.25 403,-494.25 403,-566.25"/>
<text xml:space="preserve" text-anchor="middle" x="277" y="-532.15" font-family="Helvetica,sans-Serif" font-size="28.00">Quantized Model</text>
<text xml:space="preserve" text-anchor="middle" x="277" y="-503.65" font-family="Helvetica,sans-Serif" font-size="28.00">(8&#45;bit)</text>
</g>
<!-- pytorch&#45;&gt;quantized -->
<g id="edge1" class="edge">
<title>pytorch&#45;&gt;quantized</title>
<path fill="none" stroke="Green" stroke-width="3.5" d="M277,-703.34C277,-670 277,-619.53 277,-581.85"/>
<polygon fill="Green" stroke="Green" stroke-width="3.5" points="280.5,-581.88 277,-571.88 273.5,-581.88 280.5,-581.88"/>
<text xml:space="preserve" text-anchor="middle" x="318.62" y="-628.6" font-family="Times,serif" font-size="22.00">quantizes</text>
</g>
<!-- onnx -->
<g id="node2" class="node">
<title>onnx</title>
<polygon fill="#f0f0f0" stroke="black" points="268,-312 16,-312 16,-240 268,-240 268,-312"/>
<text xml:space="preserve" text-anchor="middle" x="142" y="-263.65" font-family="Helvetica,sans-Serif" font-size="28.00">ONNX Model</text>
</g>
<!-- onnx_classifier -->
<g id="node7" class="node">
<title>onnx_classifier</title>
<polygon fill="#f0f0f0" stroke="black" points="814,-109.5 562,-109.5 562,-16 814,-16 814,-109.5"/>
<text xml:space="preserve" text-anchor="middle" x="688" y="-78.9" font-family="Helvetica,sans-Serif" font-size="28.00">ONNX Runtime</text>
<text xml:space="preserve" text-anchor="middle" x="688" y="-50.4" font-family="Helvetica,sans-Serif" font-size="28.00">Classifier</text>
<text xml:space="preserve" text-anchor="middle" x="688" y="-21.9" font-family="Helvetica,sans-Serif" font-size="28.00">(C++ Backend)</text>
</g>
<!-- onnx&#45;&gt;onnx_classifier -->
<g id="edge7" class="edge">
<title>onnx&#45;&gt;onnx_classifier</title>
<path fill="none" stroke="Green" stroke-width="3.5" d="M233.7,-239.52C321.51,-205.55 454.99,-153.9 554.58,-115.37"/>
<polygon fill="Green" stroke="Green" stroke-width="3.5" points="555.7,-118.69 563.77,-111.82 553.18,-112.16 555.7,-118.69"/>
<text xml:space="preserve" text-anchor="middle" x="438.25" y="-165.1" font-family="Times,serif" font-size="22.00">loads</text>
</g>
<!-- coreml -->
<g id="node3" class="node">
<title>coreml</title>
<polygon fill="#f0f0f0" stroke="black" points="538,-312 286,-312 286,-240 538,-240 538,-312"/>
<text xml:space="preserve" text-anchor="middle" x="412" y="-263.65" font-family="Helvetica,sans-Serif" font-size="28.00">Core ML Model</text>
</g>
<!-- coreml_classifier -->
<g id="node8" class="node">
<title>coreml_classifier</title>
<polygon fill="#f0f0f0" stroke="black" points="1084,-98.75 832,-98.75 832,-26.75 1084,-26.75 1084,-98.75"/>
<text xml:space="preserve" text-anchor="middle" x="958" y="-50.4" font-family="Helvetica,sans-Serif" font-size="28.00">Core ML Classifier</text>
</g>
<!-- coreml&#45;&gt;coreml_classifier -->
<g id="edge8" class="edge">
<title>coreml&#45;&gt;coreml_classifier</title>
<path fill="none" stroke="Green" stroke-width="3.5" d="M475.77,-239.71C520.2,-216.06 581.34,-185.36 637.5,-163.5 717.52,-132.35 741.1,-135.29 823,-109.5 828.76,-107.69 834.65,-105.8 840.59,-103.88"/>
<polygon fill="Green" stroke="Green" stroke-width="3.5" points="841.51,-107.26 849.93,-100.83 839.33,-100.61 841.51,-107.26"/>
<text xml:space="preserve" text-anchor="middle" x="660.75" y="-165.1" font-family="Times,serif" font-size="22.00">loads</text>
</g>
<!-- quantized&#45;&gt;onnx -->
<g id="edge2" class="edge">
<title>quantized&#45;&gt;onnx</title>
<path fill="none" stroke="Green" stroke-width="3.5" d="M258.09,-493.91C234.59,-450.01 194.38,-374.88 168,-325.58"/>
<polygon fill="Green" stroke="Green" stroke-width="3.5" points="171.09,-323.94 163.28,-316.77 164.92,-327.24 171.09,-323.94"/>
<text xml:space="preserve" text-anchor="middle" x="263.06" y="-396.85" font-family="Times,serif" font-size="22.00">converts</text>
</g>
<!-- quantized&#45;&gt;coreml -->
<g id="edge3" class="edge">
<title>quantized&#45;&gt;coreml</title>
<path fill="none" stroke="Green" stroke-width="3.5" d="M295.91,-493.91C319.41,-450.01 359.62,-374.88 386,-325.58"/>
<polygon fill="Green" stroke="Green" stroke-width="3.5" points="389.08,-327.24 390.72,-316.77 382.91,-323.94 389.08,-327.24"/>
<text xml:space="preserve" text-anchor="middle" x="398.06" y="-396.85" font-family="Times,serif" font-size="22.00">converts</text>
</g>
<!-- swift_app -->
<g id="node5" class="node">
<title>swift_app</title>
<polygon fill="#f0f0f0" stroke="black" points="1084,-566.25 832,-566.25 832,-494.25 1084,-494.25 1084,-566.25"/>
<text xml:space="preserve" text-anchor="middle" x="958" y="-517.9" font-family="Helvetica,sans-Serif" font-size="28.00">Swift Application</text>
</g>
<!-- classifier_protocol -->
<g id="node6" class="node">
<title>classifier_protocol</title>
<polygon fill="#f0f0f0" stroke="black" points="814,-312 562,-312 562,-240 814,-240 814,-312"/>
<text xml:space="preserve" text-anchor="middle" x="688" y="-263.65" font-family="Helvetica,sans-Serif" font-size="28.00">ClassifierProtocol</text>
</g>
<!-- swift_app&#45;&gt;classifier_protocol -->
<g id="edge4" class="edge">
<title>swift_app&#45;&gt;classifier_protocol</title>
<path fill="none" stroke="Green" stroke-width="3.5" d="M911.56,-493.85C891.41,-477.98 867.83,-458.72 847.5,-440.25 806,-402.55 761.65,-356.65 730.27,-323.13"/>
<polygon fill="Green" stroke="Green" stroke-width="3.5" points="733.14,-321.07 723.76,-316.14 728.02,-325.85 733.14,-321.07"/>
<text xml:space="preserve" text-anchor="middle" x="900.75" y="-408.1" font-family="Times,serif" font-size="22.00">uses</text>
<text xml:space="preserve" text-anchor="middle" x="900.75" y="-385.6" font-family="Times,serif" font-size="22.00">(decoupled)</text>
</g>
<!-- data_eval -->
<g id="node9" class="node">
<title>data_eval</title>
<polygon fill="#f0f0f0" stroke="black" points="1084,-312 832,-312 832,-240 1084,-240 1084,-312"/>
<text xml:space="preserve" text-anchor="middle" x="958" y="-263.65" font-family="Helvetica,sans-Serif" font-size="28.00">Evaluation Data</text>
</g>
<!-- swift_app&#45;&gt;data_eval -->
<g id="edge9" class="edge">
<title>swift_app&#45;&gt;data_eval</title>
<path fill="none" stroke="Green" stroke-width="3.5" d="M958,-493.91C958,-450.48 958,-376.48 958,-327.17"/>
<polygon fill="Green" stroke="Green" stroke-width="3.5" points="961.5,-327.4 958,-317.4 954.5,-327.4 961.5,-327.4"/>
<text xml:space="preserve" text-anchor="middle" x="1011.25" y="-419.35" font-family="Times,serif" font-size="22.00">evaluates</text>
<text xml:space="preserve" text-anchor="middle" x="1011.25" y="-396.85" font-family="Times,serif" font-size="22.00">models</text>
<text xml:space="preserve" text-anchor="middle" x="1011.25" y="-374.35" font-family="Times,serif" font-size="22.00">sequentially</text>
</g>
<!-- macos -->
<g id="node10" class="node">
<title>macos</title>
<polygon fill="#f0f0f0" stroke="black" points="1630,-312 1378,-312 1378,-240 1630,-240 1630,-312"/>
<text xml:space="preserve" text-anchor="middle" x="1504" y="-277.9" font-family="Helvetica,sans-Serif" font-size="28.00">macOS App</text>
<text xml:space="preserve" text-anchor="middle" x="1504" y="-249.4" font-family="Helvetica,sans-Serif" font-size="28.00">&amp; CLI</text>
</g>
<!-- swift_app&#45;&gt;macos -->
<g id="edge10" class="edge">
<title>swift_app&#45;&gt;macos</title>
<path fill="none" stroke="Green" stroke-width="3.5" d="M1080.63,-493.77C1127.42,-478.96 1180.82,-460.48 1228,-440.25 1293.33,-412.24 1307.81,-400.93 1369,-364.75 1392.23,-351.01 1417.14,-335.16 1439.16,-320.73"/>
<polygon fill="Green" stroke="Green" stroke-width="3.5" points="1440.91,-323.77 1447.33,-315.35 1437.06,-317.93 1440.91,-323.77"/>
<text xml:space="preserve" text-anchor="middle" x="1397.91" y="-396.85" font-family="Times,serif" font-size="22.00">builds for</text>
</g>
<!-- ios -->
<g id="node11" class="node">
<title>ios</title>
<polygon fill="#f0f0f0" stroke="black" points="1900,-312 1648,-312 1648,-240 1900,-240 1900,-312"/>
<text xml:space="preserve" text-anchor="middle" x="1774" y="-263.65" font-family="Helvetica,sans-Serif" font-size="28.00">iOS App</text>
</g>
<!-- swift_app&#45;&gt;ios -->
<g id="edge11" class="edge">
<title>swift_app&#45;&gt;ios</title>
<path fill="none" stroke="Green" stroke-width="3.5" d="M1084.39,-516.75C1225.98,-498.75 1459.2,-456.94 1639,-364.75 1663.86,-352 1689.88,-335.84 1712.38,-320.86"/>
<polygon fill="Green" stroke="Green" stroke-width="3.5" points="1714.11,-323.92 1720.43,-315.42 1710.19,-318.11 1714.11,-323.92"/>
<text xml:space="preserve" text-anchor="middle" x="1664.98" y="-396.85" font-family="Times,serif" font-size="22.00">builds for</text>
</g>
<!-- ios_simulator -->
<g id="node12" class="node">
<title>ios_simulator</title>
<polygon fill="#f0f0f0" stroke="black" points="1360,-312 1108,-312 1108,-240 1360,-240 1360,-312"/>
<text xml:space="preserve" text-anchor="middle" x="1234" y="-263.65" font-family="Helvetica,sans-Serif" font-size="28.00">iOS Simulator</text>
</g>
<!-- swift_app&#45;&gt;ios_simulator -->
<g id="edge12" class="edge">
<title>swift_app&#45;&gt;ios_simulator</title>
<path fill="none" stroke="Green" stroke-width="3.5" d="M1004.25,-493.92C1024.52,-477.99 1048.35,-458.66 1069,-440.25 1111.43,-402.43 1157.2,-356.73 1189.74,-323.31"/>
<polygon fill="Green" stroke="Green" stroke-width="3.5" points="1192.11,-325.89 1196.56,-316.28 1187.09,-321.02 1192.11,-325.89"/>
<text xml:space="preserve" text-anchor="middle" x="1181.35" y="-396.85" font-family="Times,serif" font-size="22.00">builds for</text>
</g>
<!-- classifier_protocol&#45;&gt;onnx_classifier -->
<g id="edge5" class="edge">
<title>classifier_protocol&#45;&gt;onnx_classifier</title>
<path fill="none" stroke="Green" stroke-width="3.5" d="M688,-239.64C688,-208.36 688,-162.04 688,-124.78"/>
<polygon fill="Green" stroke="Green" stroke-width="3.5" points="691.5,-125.26 688,-115.26 684.5,-125.26 691.5,-125.26"/>
<text xml:space="preserve" text-anchor="middle" x="739.38" y="-165.1" font-family="Times,serif" font-size="22.00">implements</text>
</g>
<!-- classifier_protocol&#45;&gt;coreml_classifier -->
<g id="edge6" class="edge">
<title>classifier_protocol&#45;&gt;coreml_classifier</title>
<path fill="none" stroke="Green" stroke-width="3.5" d="M733.19,-239.64C779.24,-203.62 850.79,-147.63 900.77,-108.53"/>
<polygon fill="Green" stroke="Green" stroke-width="3.5" points="902.77,-111.41 908.49,-102.49 898.46,-105.89 902.77,-111.41"/>
<text xml:space="preserve" text-anchor="middle" x="874.38" y="-165.1" font-family="Times,serif" font-size="22.00">implements</text>
</g>
</g>
</svg>
