<?xml version="1.0" encoding="UTF-8" standalone="no"?>
<!DOCTYPE svg PUBLIC "-//W3C//DTD SVG 1.1//EN"
 "http://www.w3.org/Graphics/SVG/1.1/DTD/svg11.dtd">
<!-- Generated by graphviz version 13.0.0 (20250608.1624)
 -->
<!-- Title: G Pages: 1 -->
<svg width="2960pt" height="2079pt"
 viewBox="0.00 0.00 2960.00 2079.00" xmlns="http://www.w3.org/2000/svg" xmlns:xlink="http://www.w3.org/1999/xlink">
<g id="graph0" class="graph" transform="scale(1 1) rotate(0) translate(4 2075)">
<title>G</title>
<text xml:space="preserve" text-anchor="middle" x="1476" y="-2036.6" font-family="Helvetica,sans-Serif" font-size="32.00">What I learned in this project</text>
<g id="clust1" class="cluster">
<title>cluster_0</title>
<path fill="LightSteelBlue" stroke="#f0f0f0" d="M117,-1099C117,-1099 363,-1099 363,-1099 369,-1099 375,-1105 375,-1111 375,-1111 375,-2010.75 375,-2010.75 375,-2016.75 369,-2022.75 363,-2022.75 363,-2022.75 117,-2022.75 117,-2022.75 111,-2022.75 105,-2016.75 105,-2010.75 105,-2010.75 105,-1111 105,-1111 105,-1105 111,-1099 117,-1099"/>
<text xml:space="preserve" text-anchor="middle" x="240" y="-1988.35" font-family="Helvetica,sans-Serif" font-size="32.00">PyTorch Workflow</text>
</g>
<g id="clust2" class="cluster">
<title>cluster_1</title>
<path fill="SlateGrey" stroke="SlateGrey" d="M20,-662.75C20,-662.75 470,-662.75 470,-662.75 476,-662.75 482,-668.75 482,-674.75 482,-674.75 482,-1032 482,-1032 482,-1038 476,-1044 470,-1044 470,-1044 20,-1044 20,-1044 14,-1044 8,-1038 8,-1032 8,-1032 8,-674.75 8,-674.75 8,-668.75 14,-662.75 20,-662.75"/>
<text xml:space="preserve" text-anchor="middle" x="245" y="-1009.6" font-family="Helvetica,sans-Serif" font-size="32.00">ONNX Conversion &amp; Verification</text>
</g>
<g id="clust3" class="cluster">
<title>cluster_2</title>
<path fill="DarkOrange" stroke="DarkOrange" d="M502,-435.5C502,-435.5 849,-435.5 849,-435.5 855,-435.5 861,-441.5 861,-447.5 861,-447.5 861,-1032 861,-1032 861,-1038 855,-1044 849,-1044 849,-1044 502,-1044 502,-1044 496,-1044 490,-1038 490,-1032 490,-1032 490,-447.5 490,-447.5 490,-441.5 496,-435.5 502,-435.5"/>
<text xml:space="preserve" text-anchor="middle" x="675.5" y="-1009.6" font-family="Helvetica,sans-Serif" font-size="32.00">C++ ONNX Runtime App</text>
</g>
<g id="clust4" class="cluster">
<title>cluster_3</title>
<path fill="LightGreen" stroke="LightGreen" d="M1592,-202.5C1592,-202.5 2932,-202.5 2932,-202.5 2938,-202.5 2944,-208.5 2944,-214.5 2944,-214.5 2944,-827.25 2944,-827.25 2944,-833.25 2938,-839.25 2932,-839.25 2932,-839.25 1592,-839.25 1592,-839.25 1586,-839.25 1580,-833.25 1580,-827.25 1580,-827.25 1580,-214.5 1580,-214.5 1580,-208.5 1586,-202.5 1592,-202.5"/>
<text xml:space="preserve" text-anchor="middle" x="2262" y="-804.85" font-family="Helvetica,sans-Serif" font-size="32.00">macOS Development</text>
</g>
<g id="clust5" class="cluster">
<title>cluster_s_macos</title>
<polygon fill="none" stroke="#f4a460" stroke-dasharray="5,2" points="1588,-210.5 1588,-791 2936,-791 2936,-210.5 1588,-210.5"/>
<text xml:space="preserve" text-anchor="middle" x="2262" y="-756.6" font-family="Helvetica,sans-Serif" font-size="32.00">Developing Swift macOS Apps</text>
</g>
<g id="clust6" class="cluster">
<title>cluster_4</title>
<path fill="LightCoral" stroke="LightCoral" d="M881,-8C881,-8 1395,-8 1395,-8 1401,-8 1407,-14 1407,-20 1407,-20 1407,-551.75 1407,-551.75 1407,-557.75 1401,-563.75 1395,-563.75 1395,-563.75 881,-563.75 881,-563.75 875,-563.75 869,-557.75 869,-551.75 869,-551.75 869,-20 869,-20 869,-14 875,-8 881,-8"/>
<text xml:space="preserve" text-anchor="middle" x="1138" y="-529.35" font-family="Helvetica,sans-Serif" font-size="32.00">iOS Development</text>
</g>
<!-- data -->
<g id="node1" class="node">
<title>data</title>
<polygon fill="#f0f0f0" stroke="black" points="366,-1974.5 114,-1974.5 114,-1902.5 366,-1902.5 366,-1974.5"/>
<text xml:space="preserve" text-anchor="middle" x="240" y="-1940.1" font-family="Helvetica,sans-Serif" font-size="22.00">European Cities</text>
<text xml:space="preserve" text-anchor="middle" x="240" y="-1917.6" font-family="Helvetica,sans-Serif" font-size="22.00">Geo&#45;Coordinates Data</text>
</g>
<!-- pytorch_script -->
<g id="node2" class="node">
<title>pytorch_script</title>
<polygon fill="#f0f0f0" stroke="black" points="366,-1793.5 114,-1793.5 114,-1721.5 366,-1721.5 366,-1793.5"/>
<text xml:space="preserve" text-anchor="middle" x="240" y="-1759.1" font-family="Helvetica,sans-Serif" font-size="22.00">PyTorch Script</text>
<text xml:space="preserve" text-anchor="middle" x="240" y="-1736.6" font-family="Helvetica,sans-Serif" font-size="22.00">(train, eval)</text>
</g>
<!-- data&#45;&gt;pytorch_script -->
<g id="edge1" class="edge">
<title>data&#45;&gt;pytorch_script</title>
<path fill="none" stroke="Red" stroke-width="3.5" d="M240,-1902.14C240,-1875.53 240,-1838.72 240,-1809.01"/>
<polygon fill="Red" stroke="Red" stroke-width="3.5" points="243.5,-1809.09 240,-1799.09 236.5,-1809.09 243.5,-1809.09"/>
</g>
<!-- training -->
<g id="node3" class="node">
<title>training</title>
<polygon fill="#f0f0f0" stroke="black" points="366,-1591 114,-1591 114,-1515.5 366,-1515.5 366,-1591"/>
<text xml:space="preserve" text-anchor="middle" x="240" y="-1566.1" font-family="Helvetica,sans-Serif" font-size="22.00">Training Process</text>
<text xml:space="preserve" text-anchor="middle" x="240" y="-1543.6" font-family="Helvetica,sans-Serif" font-size="22.00">(Epochs, Architecture,</text>
<text xml:space="preserve" text-anchor="middle" x="240" y="-1521.1" font-family="Helvetica,sans-Serif" font-size="22.00"> Activation)</text>
</g>
<!-- pytorch_script&#45;&gt;training -->
<g id="edge2" class="edge">
<title>pytorch_script&#45;&gt;training</title>
<path fill="none" stroke="Red" stroke-width="3.5" d="M240,-1721.27C240,-1689.62 240,-1642.73 240,-1606.68"/>
<polygon fill="Red" stroke="Red" stroke-width="3.5" points="243.5,-1606.77 240,-1596.77 236.5,-1606.77 243.5,-1606.77"/>
<text xml:space="preserve" text-anchor="middle" x="259.12" y="-1646.6" font-family="Times,serif" font-size="22.00">runs</text>
</g>
<!-- quantization -->
<g id="node4" class="node">
<title>quantization</title>
<polygon fill="#f0f0f0" stroke="black" points="366,-1385 114,-1385 114,-1309.5 366,-1309.5 366,-1385"/>
<text xml:space="preserve" text-anchor="middle" x="240" y="-1360.1" font-family="Helvetica,sans-Serif" font-size="22.00">Model 32&#45;bit model /</text>
<text xml:space="preserve" text-anchor="middle" x="240" y="-1337.6" font-family="Helvetica,sans-Serif" font-size="22.00"> Quantization</text>
<text xml:space="preserve" text-anchor="middle" x="240" y="-1315.1" font-family="Helvetica,sans-Serif" font-size="22.00">(16&#45;bit or 8&#45;bit)</text>
</g>
<!-- training&#45;&gt;quantization -->
<g id="edge3" class="edge">
<title>training&#45;&gt;quantization</title>
<path fill="none" stroke="Red" stroke-width="3.5" d="M240,-1515.31C240,-1483.2 240,-1436.34 240,-1400.41"/>
<polygon fill="Red" stroke="Red" stroke-width="3.5" points="243.5,-1400.56 240,-1390.56 236.5,-1400.56 243.5,-1400.56"/>
<text xml:space="preserve" text-anchor="middle" x="285" y="-1440.6" font-family="Times,serif" font-size="22.00">optionally</text>
</g>
<!-- stored_model -->
<g id="node5" class="node">
<title>stored_model</title>
<polygon fill="#f0f0f0" stroke="black" points="366,-1179 114,-1179 114,-1107 366,-1107 366,-1179"/>
<text xml:space="preserve" text-anchor="middle" x="240" y="-1133.35" font-family="Helvetica,sans-Serif" font-size="22.00">Stored Model</text>
</g>
<!-- quantization&#45;&gt;stored_model -->
<g id="edge4" class="edge">
<title>quantization&#45;&gt;stored_model</title>
<path fill="none" stroke="Red" stroke-width="3.5" d="M240,-1309.15C240,-1276.87 240,-1229.79 240,-1194.15"/>
<polygon fill="Red" stroke="Red" stroke-width="3.5" points="243.5,-1194.47 240,-1184.47 236.5,-1194.47 243.5,-1194.47"/>
<text xml:space="preserve" text-anchor="middle" x="265.5" y="-1234.6" font-family="Times,serif" font-size="22.00">stores</text>
</g>
<!-- onnx_conversion -->
<g id="node6" class="node">
<title>onnx_conversion</title>
<polygon fill="#f0f0f0" stroke="black" points="366,-995.75 114,-995.75 114,-923.75 366,-923.75 366,-995.75"/>
<text xml:space="preserve" text-anchor="middle" x="240" y="-961.35" font-family="Helvetica,sans-Serif" font-size="22.00">Convert to ONNX</text>
<text xml:space="preserve" text-anchor="middle" x="240" y="-938.85" font-family="Helvetica,sans-Serif" font-size="22.00">Format</text>
</g>
<!-- stored_model&#45;&gt;onnx_conversion -->
<g id="edge5" class="edge">
<title>stored_model&#45;&gt;onnx_conversion</title>
<path fill="none" stroke="Red" stroke-width="3.5" d="M240,-1106.62C240,-1079.43 240,-1041.5 240,-1011.13"/>
<polygon fill="Red" stroke="Red" stroke-width="3.5" points="243.5,-1011.34 240,-1001.34 236.5,-1011.34 243.5,-1011.34"/>
</g>
<!-- onnx_verification -->
<g id="node7" class="node">
<title>onnx_verification</title>
<polygon fill="#f0f0f0" stroke="black" points="474,-742.75 222,-742.75 222,-670.75 474,-670.75 474,-742.75"/>
<text xml:space="preserve" text-anchor="middle" x="348" y="-708.35" font-family="Helvetica,sans-Serif" font-size="22.00">ONNX Model</text>
<text xml:space="preserve" text-anchor="middle" x="348" y="-685.85" font-family="Helvetica,sans-Serif" font-size="22.00">Verification Eval Test</text>
</g>
<!-- onnx_conversion&#45;&gt;onnx_verification -->
<g id="edge6" class="edge">
<title>onnx_conversion&#45;&gt;onnx_verification</title>
<path fill="none" stroke="Red" stroke-width="3.5" d="M255.24,-923.32C273.94,-879.87 305.73,-805.99 326.8,-757.03"/>
<polygon fill="Red" stroke="Red" stroke-width="3.5" points="330,-758.43 330.74,-747.87 323.57,-755.67 330,-758.43"/>
<text xml:space="preserve" text-anchor="middle" x="319.78" y="-848.85" font-family="Times,serif" font-size="22.00">verifies</text>
</g>
<!-- c_plus_plus_app -->
<g id="node9" class="node">
<title>c_plus_plus_app</title>
<polygon fill="#f0f0f0" stroke="black" points="777,-742.75 525,-742.75 525,-670.75 777,-670.75 777,-742.75"/>
<text xml:space="preserve" text-anchor="middle" x="651" y="-708.35" font-family="Helvetica,sans-Serif" font-size="22.00">C++ CLI App</text>
<text xml:space="preserve" text-anchor="middle" x="651" y="-685.85" font-family="Helvetica,sans-Serif" font-size="22.00">(Xcode)</text>
</g>
<!-- onnx_conversion&#45;&gt;c_plus_plus_app -->
<g id="edge8" class="edge">
<title>onnx_conversion&#45;&gt;c_plus_plus_app</title>
<path fill="none" stroke="Red" stroke-width="3.5" d="M324.44,-923.31C373.09,-901.54 434.59,-871.66 486,-839.25 526.53,-813.7 568.71,-779.93 600.28,-753.01"/>
<polygon fill="Red" stroke="Red" stroke-width="3.5" points="602.53,-755.7 607.82,-746.52 597.96,-750.39 602.53,-755.7"/>
<text xml:space="preserve" text-anchor="middle" x="550.35" y="-848.85" font-family="Times,serif" font-size="22.00">uses ONNX model</text>
</g>
<!-- swift_app_macos -->
<g id="node12" class="node">
<title>swift_app_macos</title>
<polygon fill="#f0f0f0" stroke="black" points="2252,-290.5 2000,-290.5 2000,-218.5 2252,-218.5 2252,-290.5"/>
<text xml:space="preserve" text-anchor="middle" x="2126" y="-256.1" font-family="Helvetica,sans-Serif" font-size="22.00">Swift macOS App</text>
<text xml:space="preserve" text-anchor="middle" x="2126" y="-233.6" font-family="Helvetica,sans-Serif" font-size="22.00">(UI Design)</text>
</g>
<!-- onnx_conversion&#45;&gt;swift_app_macos -->
<g id="edge17" class="edge">
<title>onnx_conversion&#45;&gt;swift_app_macos</title>
<path fill="none" stroke="Red" stroke-width="3.5" d="M221.84,-923.28C193.14,-861.64 146.94,-734.5 213,-662.75 214.41,-661.21 1409.42,-565.11 1411,-563.75 1455.33,-525.52 1421.97,-490.86 1441,-435.5 1455.48,-393.38 1447.22,-371.03 1483,-344.5 1560.14,-287.31 1819.56,-266.82 1984.36,-259.51"/>
<polygon fill="Red" stroke="Red" stroke-width="3.5" points="1984.37,-263.02 1994.22,-259.09 1984.08,-256.02 1984.37,-263.02"/>
<text xml:space="preserve" text-anchor="middle" x="1394.56" y="-584.6" font-family="Times,serif" font-size="22.00">uses ONNX model</text>
</g>
<!-- ios_app -->
<g id="node20" class="node">
<title>ios_app</title>
<polygon fill="#f0f0f0" stroke="black" points="1399,-290.5 1147,-290.5 1147,-218.5 1399,-218.5 1399,-290.5"/>
<text xml:space="preserve" text-anchor="middle" x="1273" y="-256.1" font-family="Helvetica,sans-Serif" font-size="22.00">iOS App</text>
<text xml:space="preserve" text-anchor="middle" x="1273" y="-233.6" font-family="Helvetica,sans-Serif" font-size="22.00">(UI Design)</text>
</g>
<!-- onnx_conversion&#45;&gt;ios_app -->
<g id="edge26" class="edge">
<title>onnx_conversion&#45;&gt;ios_app</title>
<path fill="none" stroke="Red" stroke-width="3.5" d="M211.16,-923.27C156.21,-851.11 48.63,-684.54 126.5,-571.75 241.33,-405.43 851.03,-308.54 1131.56,-272.16"/>
<polygon fill="Red" stroke="Red" stroke-width="3.5" points="1131.97,-275.63 1141.45,-270.89 1131.08,-268.69 1131.97,-275.63"/>
<text xml:space="preserve" text-anchor="middle" x="209.75" y="-584.6" font-family="Times,serif" font-size="22.00">uses ONNX model</text>
</g>
<!-- onnx_runtime_lib -->
<g id="node8" class="node">
<title>onnx_runtime_lib</title>
<polygon fill="#f0f0f0" stroke="black" points="832.88,-995.75 519.12,-995.75 519.12,-923.75 832.88,-923.75 832.88,-995.75"/>
<text xml:space="preserve" text-anchor="middle" x="676" y="-961.35" font-family="Helvetica,sans-Serif" font-size="22.00">ONNX Runtime</text>
<text xml:space="preserve" text-anchor="middle" x="676" y="-938.85" font-family="Helvetica,sans-Serif" font-size="22.00">Library (Compiled for Mac OS)</text>
</g>
<!-- onnx_runtime_lib&#45;&gt;c_plus_plus_app -->
<g id="edge7" class="edge">
<title>onnx_runtime_lib&#45;&gt;c_plus_plus_app</title>
<path fill="none" stroke="Red" stroke-width="3.5" d="M672.47,-923.32C668.17,-880.15 660.88,-806.94 656,-757.98"/>
<polygon fill="Red" stroke="Red" stroke-width="3.5" points="659.51,-757.87 655.04,-748.27 652.54,-758.57 659.51,-757.87"/>
<text xml:space="preserve" text-anchor="middle" x="719.72" y="-848.85" font-family="Times,serif" font-size="22.00">dependency</text>
</g>
<!-- swift_cpp_interop -->
<g id="node16" class="node">
<title>swift_cpp_interop</title>
<polygon fill="#f0f0f0" stroke="black" points="1848,-742.75 1596,-742.75 1596,-670.75 1848,-670.75 1848,-742.75"/>
<text xml:space="preserve" text-anchor="middle" x="1722" y="-708.35" font-family="Helvetica,sans-Serif" font-size="22.00">Swift/C++</text>
<text xml:space="preserve" text-anchor="middle" x="1722" y="-685.85" font-family="Helvetica,sans-Serif" font-size="22.00">Interoperability</text>
</g>
<!-- onnx_runtime_lib&#45;&gt;swift_cpp_interop -->
<g id="edge18" class="edge">
<title>onnx_runtime_lib&#45;&gt;swift_cpp_interop</title>
<path fill="none" stroke="Red" stroke-width="3.5" d="M823.92,-923.25C1025.26,-874.94 1383.07,-789.08 1580.83,-741.63"/>
<polygon fill="Red" stroke="Red" stroke-width="3.5" points="1581.61,-745.04 1590.51,-739.3 1579.97,-738.23 1581.61,-745.04"/>
<text xml:space="preserve" text-anchor="middle" x="1231.62" y="-848.85" font-family="Times,serif" font-size="22.00">dependency for Swift</text>
</g>
<!-- test_on_data -->
<g id="node10" class="node">
<title>test_on_data</title>
<polygon fill="#f0f0f0" stroke="black" points="778.62,-515.5 523.38,-515.5 523.38,-443.5 778.62,-443.5 778.62,-515.5"/>
<text xml:space="preserve" text-anchor="middle" x="651" y="-481.1" font-family="Helvetica,sans-Serif" font-size="22.00">Test ONNX Model</text>
<text xml:space="preserve" text-anchor="middle" x="651" y="-458.6" font-family="Helvetica,sans-Serif" font-size="22.00">(using original eval data)</text>
</g>
<!-- c_plus_plus_app&#45;&gt;test_on_data -->
<g id="edge9" class="edge">
<title>c_plus_plus_app&#45;&gt;test_on_data</title>
<path fill="none" stroke="Red" stroke-width="3.5" d="M651,-670.55C651,-633.06 651,-573.37 651,-530.89"/>
<polygon fill="Red" stroke="Red" stroke-width="3.5" points="654.5,-531.12 651,-521.12 647.5,-531.12 654.5,-531.12"/>
</g>
<!-- swift_language_macos -->
<g id="node11" class="node">
<title>swift_language_macos</title>
<polygon fill="#f0f0f0" stroke="black" points="2388,-515.5 2136,-515.5 2136,-443.5 2388,-443.5 2388,-515.5"/>
<text xml:space="preserve" text-anchor="middle" x="2262" y="-481.1" font-family="Helvetica,sans-Serif" font-size="22.00">Swift Language</text>
<text xml:space="preserve" text-anchor="middle" x="2262" y="-458.6" font-family="Helvetica,sans-Serif" font-size="22.00">(macOS Focus)</text>
</g>
<!-- swift_language_macos&#45;&gt;swift_app_macos -->
<g id="edge10" class="edge">
<title>swift_language_macos&#45;&gt;swift_app_macos</title>
<path fill="none" stroke="Red" stroke-width="3.5" d="M2246.22,-443.12C2233.4,-415.53 2214.2,-376.64 2194,-344.5 2185.13,-330.38 2174.57,-315.74 2164.45,-302.5"/>
<polygon fill="Red" stroke="Red" stroke-width="3.5" points="2167.5,-300.72 2158.6,-294.98 2161.98,-305.02 2167.5,-300.72"/>
</g>
<!-- macos_ui_design -->
<g id="node13" class="node">
<title>macos_ui_design</title>
<polygon fill="#f0f0f0" stroke="black" points="2658,-515.5 2406,-515.5 2406,-443.5 2658,-443.5 2658,-515.5"/>
<text xml:space="preserve" text-anchor="middle" x="2532" y="-481.1" font-family="Helvetica,sans-Serif" font-size="22.00">macOS UI Design</text>
<text xml:space="preserve" text-anchor="middle" x="2532" y="-458.6" font-family="Helvetica,sans-Serif" font-size="22.00">(SwiftUI/AppKit)</text>
</g>
<!-- macos_ui_design&#45;&gt;swift_app_macos -->
<g id="edge11" class="edge">
<title>macos_ui_design&#45;&gt;swift_app_macos</title>
<path fill="none" stroke="Red" stroke-width="3.5" d="M2467.67,-443.16C2396.06,-403.83 2280.35,-340.28 2203.73,-298.19"/>
<polygon fill="Red" stroke="Red" stroke-width="3.5" points="2205.46,-295.15 2195.01,-293.4 2202.09,-301.29 2205.46,-295.15"/>
<text xml:space="preserve" text-anchor="middle" x="2416.74" y="-357.35" font-family="Times,serif" font-size="22.00">implements</text>
</g>
<!-- swift_package_manager -->
<g id="node14" class="node">
<title>swift_package_manager</title>
<polygon fill="#f0f0f0" stroke="black" points="2118,-515.5 1866,-515.5 1866,-443.5 2118,-443.5 2118,-515.5"/>
<text xml:space="preserve" text-anchor="middle" x="1992" y="-481.1" font-family="Helvetica,sans-Serif" font-size="22.00">Swift Package Manager</text>
<text xml:space="preserve" text-anchor="middle" x="1992" y="-458.6" font-family="Helvetica,sans-Serif" font-size="22.00">(SPM)</text>
</g>
<!-- swift_package_manager&#45;&gt;swift_app_macos -->
<g id="edge12" class="edge">
<title>swift_package_manager&#45;&gt;swift_app_macos</title>
<path fill="none" stroke="Red" stroke-width="3.5" d="M2013.23,-443.16C2035.87,-405.49 2071.87,-345.58 2097.09,-303.61"/>
<polygon fill="Red" stroke="Red" stroke-width="3.5" points="2099.99,-305.58 2102.14,-295.21 2093.99,-301.98 2099.99,-305.58"/>
<text xml:space="preserve" text-anchor="middle" x="2130.63" y="-368.6" font-family="Times,serif" font-size="22.00">manages</text>
<text xml:space="preserve" text-anchor="middle" x="2130.63" y="-346.1" font-family="Times,serif" font-size="22.00">dependencies</text>
</g>
<!-- swift_package_manager&#45;&gt;ios_app -->
<g id="edge23" class="edge">
<title>swift_package_manager&#45;&gt;ios_app</title>
<path fill="none" stroke="Red" stroke-width="3.5" d="M1882.84,-443.03C1827.48,-424.4 1766.59,-402.75 1740.75,-389.5 1709.57,-373.51 1708.11,-358.54 1676,-344.5 1593.05,-308.22 1493.81,-286.07 1414.56,-272.94"/>
<polygon fill="Red" stroke="Red" stroke-width="3.5" points="1415.16,-269.49 1404.73,-271.36 1414.05,-276.4 1415.16,-269.49"/>
<text xml:space="preserve" text-anchor="middle" x="1800.38" y="-368.6" font-family="Times,serif" font-size="22.00">manages</text>
<text xml:space="preserve" text-anchor="middle" x="1800.38" y="-346.1" font-family="Times,serif" font-size="22.00">dependencies</text>
</g>
<!-- swift_onnx_rt -->
<g id="node15" class="node">
<title>swift_onnx_rt</title>
<polygon fill="#f0f0f0" stroke="black" points="1848,-515.5 1596,-515.5 1596,-443.5 1848,-443.5 1848,-515.5"/>
<text xml:space="preserve" text-anchor="middle" x="1722" y="-481.1" font-family="Helvetica,sans-Serif" font-size="22.00">Swift ONNX Runtime</text>
<text xml:space="preserve" text-anchor="middle" x="1722" y="-458.6" font-family="Helvetica,sans-Serif" font-size="22.00">Wrapper</text>
</g>
<!-- swift_onnx_rt&#45;&gt;swift_app_macos -->
<g id="edge13" class="edge">
<title>swift_onnx_rt&#45;&gt;swift_app_macos</title>
<path fill="none" stroke="Red" stroke-width="3.5" d="M1774.72,-443.1C1817.5,-414.97 1879.82,-375.37 1936.5,-344.5 1966.81,-327.99 2000.71,-311.48 2031.36,-297.25"/>
<polygon fill="Red" stroke="Red" stroke-width="3.5" points="2032.76,-300.46 2040.38,-293.09 2029.83,-294.1 2032.76,-300.46"/>
<text xml:space="preserve" text-anchor="middle" x="1989.75" y="-357.35" font-family="Times,serif" font-size="22.00">dependency</text>
</g>
<!-- swift_onnx_rt&#45;&gt;ios_app -->
<g id="edge24" class="edge">
<title>swift_onnx_rt&#45;&gt;ios_app</title>
<path fill="none" stroke="Red" stroke-width="3.5" d="M1664.66,-443.14C1617.73,-414.85 1549.19,-375.02 1487,-344.5 1452.55,-327.6 1414.07,-310.94 1379.35,-296.68"/>
<polygon fill="Red" stroke="Red" stroke-width="3.5" points="1380.72,-293.46 1370.13,-292.93 1378.08,-299.95 1380.72,-293.46"/>
<text xml:space="preserve" text-anchor="middle" x="1619.25" y="-357.35" font-family="Times,serif" font-size="22.00">dependency</text>
</g>
<!-- swift_cpp_interop&#45;&gt;swift_onnx_rt -->
<g id="edge14" class="edge">
<title>swift_cpp_interop&#45;&gt;swift_onnx_rt</title>
<path fill="none" stroke="Red" stroke-width="3.5" d="M1722,-670.55C1722,-633.06 1722,-573.37 1722,-530.89"/>
<polygon fill="Red" stroke="Red" stroke-width="3.5" points="1725.5,-531.12 1722,-521.12 1718.5,-531.12 1725.5,-531.12"/>
<text xml:space="preserve" text-anchor="middle" x="1813.5" y="-595.85" font-family="Times,serif" font-size="22.00">enables calls to</text>
<text xml:space="preserve" text-anchor="middle" x="1813.5" y="-573.35" font-family="Times,serif" font-size="22.00">C++ ONNX runtime</text>
</g>
<!-- swift_cpp_interop&#45;&gt;ios_app -->
<g id="edge25" class="edge">
<title>swift_cpp_interop&#45;&gt;ios_app</title>
<path fill="none" stroke="Red" stroke-width="3.5" d="M1635.52,-670.31C1585.48,-646.29 1524.25,-610.4 1482,-563.75 1409.85,-484.09 1445.57,-429.65 1380,-344.5 1367.67,-328.48 1351.96,-313.43 1336.41,-300.42"/>
<polygon fill="Red" stroke="Red" stroke-width="3.5" points="1338.71,-297.77 1328.73,-294.21 1334.31,-303.22 1338.71,-297.77"/>
<text xml:space="preserve" text-anchor="middle" x="1534.5" y="-469.85" font-family="Times,serif" font-size="22.00">via wrapper</text>
</g>
<!-- xcode_dev -->
<g id="node17" class="node">
<title>xcode_dev</title>
<polygon fill="#f0f0f0" stroke="black" points="2928,-515.5 2676,-515.5 2676,-443.5 2928,-443.5 2928,-515.5"/>
<text xml:space="preserve" text-anchor="middle" x="2802" y="-469.85" font-family="Helvetica,sans-Serif" font-size="22.00">Xcode Development</text>
</g>
<!-- xcode_dev&#45;&gt;swift_app_macos -->
<g id="edge15" class="edge">
<title>xcode_dev&#45;&gt;swift_app_macos</title>
<path fill="none" stroke="Red" stroke-width="3.5" d="M2723.43,-443.12C2657.26,-414.17 2559.64,-373.42 2472,-344.5 2405.47,-322.55 2330.29,-302.64 2267.05,-287.25"/>
<polygon fill="Red" stroke="Red" stroke-width="3.5" points="2268.19,-283.92 2257.65,-284.98 2266.55,-290.73 2268.19,-283.92"/>
<text xml:space="preserve" text-anchor="middle" x="2609.91" y="-357.35" font-family="Times,serif" font-size="22.00">IDE</text>
</g>
<!-- public_spm -->
<g id="node18" class="node">
<title>public_spm</title>
<polygon fill="#f0f0f0" stroke="black" points="2118,-742.75 1866,-742.75 1866,-670.75 2118,-670.75 2118,-742.75"/>
<text xml:space="preserve" text-anchor="middle" x="1992" y="-708.35" font-family="Helvetica,sans-Serif" font-size="22.00">Public GitHub</text>
<text xml:space="preserve" text-anchor="middle" x="1992" y="-685.85" font-family="Helvetica,sans-Serif" font-size="22.00">Swift Package</text>
</g>
<!-- public_spm&#45;&gt;swift_package_manager -->
<g id="edge16" class="edge">
<title>public_spm&#45;&gt;swift_package_manager</title>
<path fill="none" stroke="Red" stroke-width="3.5" d="M1992,-670.55C1992,-633.06 1992,-573.37 1992,-530.89"/>
<polygon fill="Red" stroke="Red" stroke-width="3.5" points="1995.5,-531.12 1992,-521.12 1988.5,-531.12 1995.5,-531.12"/>
<text xml:space="preserve" text-anchor="middle" x="2070" y="-595.85" font-family="Times,serif" font-size="22.00">can be referenced</text>
<text xml:space="preserve" text-anchor="middle" x="2070" y="-573.35" font-family="Times,serif" font-size="22.00">via URL</text>
</g>
<!-- swift_language_ios -->
<g id="node19" class="node">
<title>swift_language_ios</title>
<polygon fill="#f0f0f0" stroke="black" points="1129,-515.5 877,-515.5 877,-443.5 1129,-443.5 1129,-515.5"/>
<text xml:space="preserve" text-anchor="middle" x="1003" y="-481.1" font-family="Helvetica,sans-Serif" font-size="22.00">Swift Language</text>
<text xml:space="preserve" text-anchor="middle" x="1003" y="-458.6" font-family="Helvetica,sans-Serif" font-size="22.00">(iOS Focus)</text>
</g>
<!-- swift_language_ios&#45;&gt;ios_app -->
<g id="edge19" class="edge">
<title>swift_language_ios&#45;&gt;ios_app</title>
<path fill="none" stroke="Red" stroke-width="3.5" d="M1045.78,-443.16C1092.59,-404.51 1167.72,-342.45 1218.66,-300.38"/>
<polygon fill="Red" stroke="Red" stroke-width="3.5" points="1220.85,-303.11 1226.33,-294.04 1216.39,-297.71 1220.85,-303.11"/>
</g>
<!-- ios_emulator -->
<g id="node22" class="node">
<title>ios_emulator</title>
<polygon fill="#f0f0f0" stroke="black" points="1129,-88 877,-88 877,-16 1129,-16 1129,-88"/>
<text xml:space="preserve" text-anchor="middle" x="1003" y="-42.35" font-family="Helvetica,sans-Serif" font-size="22.00">iOS Simulator</text>
</g>
<!-- ios_app&#45;&gt;ios_emulator -->
<g id="edge21" class="edge">
<title>ios_app&#45;&gt;ios_emulator</title>
<path fill="none" stroke="Red" stroke-width="3.5" d="M1225.35,-218.12C1179.99,-184.43 1111.58,-133.63 1062.63,-97.28"/>
<polygon fill="Red" stroke="Red" stroke-width="3.5" points="1064.99,-94.68 1054.88,-91.53 1060.82,-100.3 1064.99,-94.68"/>
<text xml:space="preserve" text-anchor="middle" x="1179.1" y="-143.6" font-family="Times,serif" font-size="22.00">tests on</text>
</g>
<!-- target_device_deployment -->
<g id="node23" class="node">
<title>target_device_deployment</title>
<polygon fill="#f0f0f0" stroke="black" points="1399,-88 1147,-88 1147,-16 1399,-16 1399,-88"/>
<text xml:space="preserve" text-anchor="middle" x="1273" y="-53.6" font-family="Helvetica,sans-Serif" font-size="22.00">Target Device</text>
<text xml:space="preserve" text-anchor="middle" x="1273" y="-31.1" font-family="Helvetica,sans-Serif" font-size="22.00">Deployment</text>
</g>
<!-- ios_app&#45;&gt;target_device_deployment -->
<g id="edge22" class="edge">
<title>ios_app&#45;&gt;target_device_deployment</title>
<path fill="none" stroke="Red" stroke-width="3.5" d="M1273,-218.12C1273,-186.29 1273,-139.18 1273,-103.41"/>
<polygon fill="Red" stroke="Red" stroke-width="3.5" points="1276.5,-103.66 1273,-93.66 1269.5,-103.66 1276.5,-103.66"/>
<text xml:space="preserve" text-anchor="middle" x="1318.75" y="-143.6" font-family="Times,serif" font-size="22.00">deploys to</text>
</g>
<!-- ios_ui_design -->
<g id="node21" class="node">
<title>ios_ui_design</title>
<polygon fill="#f0f0f0" stroke="black" points="1399,-515.5 1147,-515.5 1147,-443.5 1399,-443.5 1399,-515.5"/>
<text xml:space="preserve" text-anchor="middle" x="1273" y="-481.1" font-family="Helvetica,sans-Serif" font-size="22.00">iOS UI Design</text>
<text xml:space="preserve" text-anchor="middle" x="1273" y="-458.6" font-family="Helvetica,sans-Serif" font-size="22.00">(SwiftUI/UIKit)</text>
</g>
<!-- ios_ui_design&#45;&gt;ios_app -->
<g id="edge20" class="edge">
<title>ios_ui_design&#45;&gt;ios_app</title>
<path fill="none" stroke="Red" stroke-width="3.5" d="M1273,-443.16C1273,-406.14 1273,-347.65 1273,-305.81"/>
<polygon fill="Red" stroke="Red" stroke-width="3.5" points="1276.5,-305.97 1273,-295.97 1269.5,-305.97 1276.5,-305.97"/>
<text xml:space="preserve" text-anchor="middle" x="1324.38" y="-357.35" font-family="Times,serif" font-size="22.00">implements</text>
</g>
</g>
</svg>
