<?xml version="1.0" encoding="UTF-8" standalone="no"?>
<!DOCTYPE svg PUBLIC "-//W3C//DTD SVG 1.1//EN"
 "http://www.w3.org/Graphics/SVG/1.1/DTD/svg11.dtd">
<!-- Generated by graphviz version 13.0.0 (20250608.1624)
 -->
<!-- Pages: 1 -->
<svg width="1830pt" height="971pt"
 viewBox="0.00 0.00 1830.00 971.00" xmlns="http://www.w3.org/2000/svg" xmlns:xlink="http://www.w3.org/1999/xlink">
<g id="graph0" class="graph" transform="scale(1 1) rotate(0) translate(4 967.25)">
<!-- BF56FD632E7F077B00D2F271 -->
<g id="node1" class="node">
<title>BF56FD632E7F077B00D2F271</title>
<g id="a_node1"><a xlink:title="id=BF56FD632E7F077B00D2F271 isa=XCSwiftPackageProductDependency">
<path fill="SandyBrown" stroke="black" d="M1308.75,-785C1308.75,-785 1224.75,-785 1224.75,-785 1218.75,-785 1212.75,-779 1212.75,-773 1212.75,-773 1212.75,-725 1212.75,-725 1212.75,-719 1218.75,-713 1224.75,-713 1224.75,-713 1308.75,-713 1308.75,-713 1314.75,-713 1320.75,-719 1320.75,-725 1320.75,-725 1320.75,-773 1320.75,-773 1320.75,-779 1314.75,-785 1308.75,-785"/>
<text xml:space="preserve" text-anchor="start" x="1228.12" y="-742.27" font-family="Helvetica,sans-Serif" font-weight="bold" font-size="18.00">classifier</text>
</a>
</g>
</g>
<!-- BF56FD582E7F05F100D2F271 -->
<g id="node11" class="node">
<title>BF56FD582E7F05F100D2F271</title>
<g id="a_node11"><a xlink:title="id=BF56FD582E7F05F100D2F271 isa=XCLocalSwiftPackageReference">
<path fill="SandyBrown" stroke="black" d="M1543.75,-963.25C1543.75,-963.25 1459.75,-963.25 1459.75,-963.25 1453.75,-963.25 1447.75,-957.25 1447.75,-951.25 1447.75,-951.25 1447.75,-903.25 1447.75,-903.25 1447.75,-897.25 1453.75,-891.25 1459.75,-891.25 1459.75,-891.25 1543.75,-891.25 1543.75,-891.25 1549.75,-891.25 1555.75,-897.25 1555.75,-903.25 1555.75,-903.25 1555.75,-951.25 1555.75,-951.25 1555.75,-957.25 1549.75,-963.25 1543.75,-963.25"/>
<text xml:space="preserve" text-anchor="start" x="1463.12" y="-920.52" font-family="Helvetica,sans-Serif" font-weight="bold" font-size="18.00">classifier</text>
</a>
</g>
</g>
<!-- BF56FD632E7F077B00D2F271&#45;&gt;BF56FD582E7F05F100D2F271 -->
<g id="edge1" class="edge">
<title>BF56FD632E7F077B00D2F271&#45;&gt;BF56FD582E7F05F100D2F271</title>
<path fill="none" stroke="Blue" stroke-width="3.5" stroke-dasharray="5,2" d="M1314.02,-785.45C1350.99,-813.18 1402.61,-851.89 1442.36,-881.71"/>
<polygon fill="Blue" stroke="Blue" stroke-width="3.5" points="1440.21,-884.47 1450.31,-887.67 1444.41,-878.87 1440.21,-884.47"/>
<text xml:space="preserve" text-anchor="middle" x="1429.17" y="-829.25" font-family="Times,serif" font-size="20.00" fill="RoyalBlue"> &#160;package</text>
</g>
<!-- BF0855472E7EC44400D3B610 -->
<g id="node2" class="node">
<title>BF0855472E7EC44400D3B610</title>
<g id="a_node2"><a xlink:title="id=BF0855472E7EC44400D3B610 isa=PBXNativeTarget">
<path fill="SkyBlue" stroke="black" d="M526.38,-250.25C526.38,-250.25 283.12,-250.25 283.12,-250.25 277.12,-250.25 271.12,-244.25 271.12,-238.25 271.12,-238.25 271.12,-190.25 271.12,-190.25 271.12,-184.25 277.12,-178.25 283.12,-178.25 283.12,-178.25 526.38,-178.25 526.38,-178.25 532.38,-178.25 538.38,-184.25 538.38,-190.25 538.38,-190.25 538.38,-238.25 538.38,-238.25 538.38,-244.25 532.38,-250.25 526.38,-250.25"/>
<text xml:space="preserve" text-anchor="start" x="279.12" y="-207.53" font-family="Helvetica,sans-Serif" font-weight="bold" font-size="18.00">geoCoordClassifierCoreTests</text>
</a>
</g>
</g>
<!-- BF0855482E7EC44400D3B610 -->
<g id="node3" class="node">
<title>BF0855482E7EC44400D3B610</title>
<g id="a_node3"><a xlink:title="id=BF0855482E7EC44400D3B610 isa=PBXFileReference">
<path fill="Wheat" stroke="black" d="M311.5,-428.5C311.5,-428.5 12,-428.5 12,-428.5 6,-428.5 0,-422.5 0,-416.5 0,-416.5 0,-368.5 0,-368.5 0,-362.5 6,-356.5 12,-356.5 12,-356.5 311.5,-356.5 311.5,-356.5 317.5,-356.5 323.5,-362.5 323.5,-368.5 323.5,-368.5 323.5,-416.5 323.5,-416.5 323.5,-422.5 317.5,-428.5 311.5,-428.5"/>
<text xml:space="preserve" text-anchor="start" x="8" y="-385.77" font-family="Helvetica,sans-Serif" font-weight="bold" font-size="18.00">geoCoordClassifierCoreTests.xctest</text>
</a>
</g>
</g>
<!-- BF0855472E7EC44400D3B610&#45;&gt;BF0855482E7EC44400D3B610 -->
<g id="edge2" class="edge">
<title>BF0855472E7EC44400D3B610&#45;&gt;BF0855482E7EC44400D3B610</title>
<path fill="none" stroke="Blue" stroke-width="3.5" stroke-dasharray="5,2" d="M329.48,-250.6C306.41,-262.81 281.52,-277.43 260.25,-293.25 239.71,-308.53 219.29,-328 202.41,-345.57"/>
<polygon fill="Blue" stroke="Blue" stroke-width="3.5" points="200.33,-342.68 196.03,-352.36 205.43,-347.48 200.33,-342.68"/>
<text xml:space="preserve" text-anchor="middle" x="303" y="-294.5" font-family="Times,serif" font-size="20.00" fill="RoyalBlue"> &#160;reference</text>
</g>
<!-- BF08550E2E7EC3C700D3B610 -->
<g id="node7" class="node">
<title>BF08550E2E7EC3C700D3B610</title>
<g id="a_node7"><a xlink:title="id=BF08550E2E7EC3C700D3B610 isa=PBXNativeTarget">
<path fill="SandyBrown" stroke="black" d="M962.62,-428.5C962.62,-428.5 804.88,-428.5 804.88,-428.5 798.88,-428.5 792.88,-422.5 792.88,-416.5 792.88,-416.5 792.88,-368.5 792.88,-368.5 792.88,-362.5 798.88,-356.5 804.88,-356.5 804.88,-356.5 962.62,-356.5 962.62,-356.5 968.62,-356.5 974.62,-362.5 974.62,-368.5 974.62,-368.5 974.62,-416.5 974.62,-416.5 974.62,-422.5 968.62,-428.5 962.62,-428.5"/>
<text xml:space="preserve" text-anchor="start" x="800.88" y="-385.77" font-family="Helvetica,sans-Serif" font-weight="bold" font-size="18.00">geoCoordClassifier</text>
</a>
</g>
</g>
<!-- BF0855472E7EC44400D3B610&#45;&gt;BF08550E2E7EC3C700D3B610 -->
<g id="edge4" class="edge">
<title>BF0855472E7EC44400D3B610&#45;&gt;BF08550E2E7EC3C700D3B610</title>
<path fill="none" stroke="Green" stroke-width="3.5" d="M465.43,-250.55C503.09,-271.26 553.06,-296.59 599.75,-313.5 674.62,-340.62 700.76,-333.78 777.96,-354.72"/>
<polygon fill="Green" stroke="Green" stroke-width="3.5" points="776.77,-358.02 787.34,-357.36 778.67,-351.28 776.77,-358.02"/>
<text xml:space="preserve" text-anchor="middle" x="647.75" y="-295.27" font-family="Times,serif" font-size="18.00" fill="Green"> &#160;dependency</text>
</g>
<!-- BF08553D2E7EC44400D3B610 -->
<g id="node14" class="node">
<title>BF08553D2E7EC44400D3B610</title>
<g id="a_node14"><a xlink:title="id=BF08553D2E7EC44400D3B610 isa=PBXNativeTarget">
<path fill="LightGreen" stroke="black" d="M1419.3,-565.78C1419.3,-565.78 1419.3,-575.72 1419.3,-575.72 1419.3,-580.69 1414.51,-586.99 1409.73,-588.32 1409.73,-588.32 1352.99,-604.09 1352.99,-604.09 1348.2,-605.42 1338.44,-606.75 1333.47,-606.75 1333.47,-606.75 1246.03,-606.75 1246.03,-606.75 1241.06,-606.75 1231.3,-605.42 1226.51,-604.09 1226.51,-604.09 1169.77,-588.32 1169.77,-588.32 1164.99,-586.99 1160.2,-580.69 1160.2,-575.72 1160.2,-575.72 1160.2,-565.78 1160.2,-565.78 1160.2,-560.81 1164.99,-554.51 1169.77,-553.18 1169.77,-553.18 1226.51,-537.41 1226.51,-537.41 1231.3,-536.08 1241.06,-534.75 1246.03,-534.75 1246.03,-534.75 1333.47,-534.75 1333.47,-534.75 1338.44,-534.75 1348.2,-536.08 1352.99,-537.41 1352.99,-537.41 1409.73,-553.18 1409.73,-553.18 1414.51,-554.51 1419.3,-560.81 1419.3,-565.78"/>
<text xml:space="preserve" text-anchor="start" x="1186.62" y="-564.02" font-family="Helvetica,sans-Serif" font-weight="bold" font-size="18.00">geoCoordClassifierCore</text>
</a>
</g>
</g>
<!-- BF0855472E7EC44400D3B610&#45;&gt;BF08553D2E7EC44400D3B610 -->
<g id="edge3" class="edge">
<title>BF0855472E7EC44400D3B610&#45;&gt;BF08553D2E7EC44400D3B610</title>
<path fill="none" stroke="Green" stroke-width="3.5" d="M383.58,-250.42C358.68,-296.83 325.83,-378.5 368.75,-428.5 393.93,-457.84 895.35,-522.16 1147.51,-552.83"/>
<polygon fill="Green" stroke="Green" stroke-width="3.5" points="1147.03,-556.3 1157.38,-554.03 1147.88,-549.35 1147.03,-556.3"/>
<text xml:space="preserve" text-anchor="middle" x="416.75" y="-384.4" font-family="Times,serif" font-size="18.00" fill="Green"> &#160;dependency</text>
</g>
<!-- BF0855072E7EC3C700D3B610 -->
<g id="node4" class="node">
<title>BF0855072E7EC3C700D3B610</title>
<g id="a_node4"><a xlink:title="id=BF0855072E7EC3C700D3B610 isa=PBXProject">
<path fill="SandyBrown" stroke="black" d="M1171.75,-72C1171.75,-72 1087.75,-72 1087.75,-72 1081.75,-72 1075.75,-66 1075.75,-60 1075.75,-60 1075.75,-12 1075.75,-12 1075.75,-6 1081.75,0 1087.75,0 1087.75,0 1171.75,0 1171.75,0 1177.75,0 1183.75,-6 1183.75,-12 1183.75,-12 1183.75,-60 1183.75,-60 1183.75,-66 1177.75,-72 1171.75,-72"/>
<text xml:space="preserve" text-anchor="start" x="1099.38" y="-29.27" font-family="Helvetica,sans-Serif" font-weight="bold" font-size="18.00">Project</text>
</a>
</g>
</g>
<!-- BF0855072E7EC3C700D3B610&#45;&gt;BF0855472E7EC44400D3B610 -->
<g id="edge10" class="edge">
<title>BF0855072E7EC3C700D3B610&#45;&gt;BF0855472E7EC44400D3B610</title>
<path fill="none" stroke="Magenta" stroke-width="3.5" stroke-dasharray="5,2" d="M1075.53,-48.92C1008.08,-63.86 889.47,-90.48 788.25,-115 710.45,-133.85 624.05,-155.88 552.99,-174.3"/>
<polygon fill="Magenta" stroke="Magenta" stroke-width="3.5" points="552.46,-170.83 543.66,-176.73 554.22,-177.6 552.46,-170.83"/>
<text xml:space="preserve" text-anchor="middle" x="816" y="-116.25" font-family="Times,serif" font-size="20.00" fill="Magenta"> &#160;target</text>
</g>
<!-- BF08551B2E7EC3C900D3B610 -->
<g id="node5" class="node">
<title>BF08551B2E7EC3C900D3B610</title>
<g id="a_node5"><a xlink:title="id=BF08551B2E7EC3C900D3B610 isa=PBXNativeTarget">
<path fill="SkyBlue" stroke="black" d="M1231.12,-250.25C1231.12,-250.25 1028.38,-250.25 1028.38,-250.25 1022.38,-250.25 1016.38,-244.25 1016.38,-238.25 1016.38,-238.25 1016.38,-190.25 1016.38,-190.25 1016.38,-184.25 1022.38,-178.25 1028.38,-178.25 1028.38,-178.25 1231.12,-178.25 1231.12,-178.25 1237.12,-178.25 1243.12,-184.25 1243.12,-190.25 1243.12,-190.25 1243.12,-238.25 1243.12,-238.25 1243.12,-244.25 1237.12,-250.25 1231.12,-250.25"/>
<text xml:space="preserve" text-anchor="start" x="1024.38" y="-207.53" font-family="Helvetica,sans-Serif" font-weight="bold" font-size="18.00">geoCoordClassifierTests</text>
</a>
</g>
</g>
<!-- BF0855072E7EC3C700D3B610&#45;&gt;BF08551B2E7EC3C900D3B610 -->
<g id="edge7" class="edge">
<title>BF0855072E7EC3C700D3B610&#45;&gt;BF08551B2E7EC3C900D3B610</title>
<path fill="none" stroke="Magenta" stroke-width="3.5" stroke-dasharray="5,2" d="M1129.75,-72.24C1129.75,-98.1 1129.75,-133.58 1129.75,-162.49"/>
<polygon fill="Magenta" stroke="Magenta" stroke-width="3.5" points="1126.25,-162.47 1129.75,-172.47 1133.25,-162.47 1126.25,-162.47"/>
<text xml:space="preserve" text-anchor="middle" x="1157.5" y="-116.25" font-family="Times,serif" font-size="20.00" fill="Magenta"> &#160;target</text>
</g>
<!-- BF0855072E7EC3C700D3B610&#45;&gt;BF08550E2E7EC3C700D3B610 -->
<g id="edge6" class="edge">
<title>BF0855072E7EC3C700D3B610&#45;&gt;BF08550E2E7EC3C700D3B610</title>
<path fill="none" stroke="Magenta" stroke-width="3.5" stroke-dasharray="5,2" d="M1075.43,-65.68C1034.82,-90.07 981.48,-128.97 952.25,-178.25 921.13,-230.73 949.54,-256.14 928.75,-313.5 925.13,-323.49 920.26,-333.67 915.06,-343.24"/>
<polygon fill="Magenta" stroke="Magenta" stroke-width="3.5" points="912.16,-341.27 910.22,-351.69 918.23,-344.75 912.16,-341.27"/>
<text xml:space="preserve" text-anchor="middle" x="980" y="-205.38" font-family="Times,serif" font-size="20.00" fill="Magenta"> &#160;target</text>
</g>
<!-- BF56FD1D2E7EF99400D2F271 -->
<g id="node9" class="node">
<title>BF56FD1D2E7EF99400D2F271</title>
<g id="a_node9"><a xlink:title="id=BF56FD1D2E7EF99400D2F271 isa=PBXNativeTarget">
<path fill="SandyBrown" stroke="black" d="M1460.25,-250.25C1460.25,-250.25 1273.25,-250.25 1273.25,-250.25 1267.25,-250.25 1261.25,-244.25 1261.25,-238.25 1261.25,-238.25 1261.25,-190.25 1261.25,-190.25 1261.25,-184.25 1267.25,-178.25 1273.25,-178.25 1273.25,-178.25 1460.25,-178.25 1460.25,-178.25 1466.25,-178.25 1472.25,-184.25 1472.25,-190.25 1472.25,-190.25 1472.25,-238.25 1472.25,-238.25 1472.25,-244.25 1466.25,-250.25 1460.25,-250.25"/>
<text xml:space="preserve" text-anchor="start" x="1269.25" y="-207.53" font-family="Helvetica,sans-Serif" font-weight="bold" font-size="18.00">geoCoordClassifierCLI</text>
</a>
</g>
</g>
<!-- BF0855072E7EC3C700D3B610&#45;&gt;BF56FD1D2E7EF99400D2F271 -->
<g id="edge11" class="edge">
<title>BF0855072E7EC3C700D3B610&#45;&gt;BF56FD1D2E7EF99400D2F271</title>
<path fill="none" stroke="Magenta" stroke-width="3.5" stroke-dasharray="5,2" d="M1177.43,-72.45C1214.79,-100.24 1266.99,-139.06 1307.11,-168.9"/>
<polygon fill="Magenta" stroke="Magenta" stroke-width="3.5" points="1304.79,-171.53 1314.9,-174.69 1308.96,-165.91 1304.79,-171.53"/>
<text xml:space="preserve" text-anchor="middle" x="1283.11" y="-116.25" font-family="Times,serif" font-size="20.00" fill="Magenta"> &#160;target</text>
</g>
<!-- BF0855072E7EC3C700D3B610&#45;&gt;BF56FD582E7F05F100D2F271 -->
<g id="edge5" class="edge">
<title>BF0855072E7EC3C700D3B610&#45;&gt;BF56FD582E7F05F100D2F271</title>
<path fill="none" stroke="Blue" stroke-width="3.5" stroke-dasharray="5,2" d="M1184.15,-41.09C1333.14,-53.78 1736.75,-98.71 1736.75,-213.25 1736.75,-213.25 1736.75,-213.25 1736.75,-750 1736.75,-833.92 1639.66,-882.77 1570.3,-906.97"/>
<polygon fill="Blue" stroke="Blue" stroke-width="3.5" points="1569.36,-903.59 1560.98,-910.08 1571.58,-910.23 1569.36,-903.59"/>
<text xml:space="preserve" text-anchor="middle" x="1779.5" y="-472.75" font-family="Times,serif" font-size="20.00" fill="RoyalBlue"> &#160;reference</text>
</g>
<!-- BF0855252E7EC3C900D3B610 -->
<g id="node12" class="node">
<title>BF0855252E7EC3C900D3B610</title>
<g id="a_node12"><a xlink:title="id=BF0855252E7EC3C900D3B610 isa=PBXNativeTarget">
<path fill="SkyBlue" stroke="black" d="M895.12,-250.25C895.12,-250.25 674.38,-250.25 674.38,-250.25 668.38,-250.25 662.38,-244.25 662.38,-238.25 662.38,-238.25 662.38,-190.25 662.38,-190.25 662.38,-184.25 668.38,-178.25 674.38,-178.25 674.38,-178.25 895.12,-178.25 895.12,-178.25 901.12,-178.25 907.12,-184.25 907.12,-190.25 907.12,-190.25 907.12,-238.25 907.12,-238.25 907.12,-244.25 901.12,-250.25 895.12,-250.25"/>
<text xml:space="preserve" text-anchor="start" x="670.38" y="-207.53" font-family="Helvetica,sans-Serif" font-weight="bold" font-size="18.00">geoCoordClassifierUITests</text>
</a>
</g>
</g>
<!-- BF0855072E7EC3C700D3B610&#45;&gt;BF0855252E7EC3C900D3B610 -->
<g id="edge8" class="edge">
<title>BF0855072E7EC3C700D3B610&#45;&gt;BF0855252E7EC3C900D3B610</title>
<path fill="none" stroke="Magenta" stroke-width="3.5" stroke-dasharray="5,2" d="M1075.36,-44.78C1020.84,-54.5 936.19,-74.98 873.25,-115 852.37,-128.27 833.39,-147.78 818.41,-165.93"/>
<polygon fill="Magenta" stroke="Magenta" stroke-width="3.5" points="815.69,-163.71 812.22,-173.72 821.18,-168.06 815.69,-163.71"/>
<text xml:space="preserve" text-anchor="middle" x="901" y="-116.25" font-family="Times,serif" font-size="20.00" fill="Magenta"> &#160;target</text>
</g>
<!-- BF0855072E7EC3C700D3B610&#45;&gt;BF08553D2E7EC44400D3B610 -->
<g id="edge9" class="edge">
<title>BF0855072E7EC3C700D3B610&#45;&gt;BF08553D2E7EC44400D3B610</title>
<path fill="none" stroke="Magenta" stroke-width="3.5" stroke-dasharray="5,2" d="M1183.84,-48.39C1300.24,-76.38 1570.15,-161 1646.75,-356.5 1658.42,-386.29 1664.74,-402.04 1646.75,-428.5 1598.87,-498.93 1509.86,-534.24 1432.7,-551.95"/>
<polygon fill="Magenta" stroke="Magenta" stroke-width="3.5" points="1432.15,-548.49 1423.12,-554.03 1433.64,-555.33 1432.15,-548.49"/>
<text xml:space="preserve" text-anchor="middle" x="1652.85" y="-294.5" font-family="Times,serif" font-size="20.00" fill="Magenta"> &#160;target</text>
</g>
<!-- BF08551C2E7EC3C900D3B610 -->
<g id="node6" class="node">
<title>BF08551C2E7EC3C900D3B610</title>
<g id="a_node6"><a xlink:title="id=BF08551C2E7EC3C900D3B610 isa=PBXFileReference">
<path fill="Wheat" stroke="black" d="M1263.25,-428.5C1263.25,-428.5 1004.25,-428.5 1004.25,-428.5 998.25,-428.5 992.25,-422.5 992.25,-416.5 992.25,-416.5 992.25,-368.5 992.25,-368.5 992.25,-362.5 998.25,-356.5 1004.25,-356.5 1004.25,-356.5 1263.25,-356.5 1263.25,-356.5 1269.25,-356.5 1275.25,-362.5 1275.25,-368.5 1275.25,-368.5 1275.25,-416.5 1275.25,-416.5 1275.25,-422.5 1269.25,-428.5 1263.25,-428.5"/>
<text xml:space="preserve" text-anchor="start" x="1000.25" y="-385.77" font-family="Helvetica,sans-Serif" font-weight="bold" font-size="18.00">geoCoordClassifierTests.xctest</text>
</a>
</g>
</g>
<!-- BF08551B2E7EC3C900D3B610&#45;&gt;BF08551C2E7EC3C900D3B610 -->
<g id="edge12" class="edge">
<title>BF08551B2E7EC3C900D3B610&#45;&gt;BF08551C2E7EC3C900D3B610</title>
<path fill="none" stroke="Blue" stroke-width="3.5" stroke-dasharray="5,2" d="M1130.55,-250.49C1131.14,-276.35 1131.94,-311.83 1132.6,-340.74"/>
<polygon fill="Blue" stroke="Blue" stroke-width="3.5" points="1129.1,-340.8 1132.82,-350.72 1136.1,-340.64 1129.1,-340.8"/>
<text xml:space="preserve" text-anchor="middle" x="1174.62" y="-294.5" font-family="Times,serif" font-size="20.00" fill="RoyalBlue"> &#160;reference</text>
</g>
<!-- BF08551B2E7EC3C900D3B610&#45;&gt;BF08550E2E7EC3C700D3B610 -->
<g id="edge13" class="edge">
<title>BF08551B2E7EC3C900D3B610&#45;&gt;BF08550E2E7EC3C700D3B610</title>
<path fill="none" stroke="Green" stroke-width="3.5" d="M1080.26,-250.7C1041.4,-278.55 987.07,-317.48 945.38,-347.34"/>
<polygon fill="Green" stroke="Green" stroke-width="3.5" points="943.55,-344.35 937.46,-353.02 947.63,-350.04 943.55,-344.35"/>
<text xml:space="preserve" text-anchor="middle" x="1062.13" y="-295.27" font-family="Times,serif" font-size="18.00" fill="Green"> &#160;dependency</text>
</g>
<!-- BF08550F2E7EC3C700D3B610 -->
<g id="node8" class="node">
<title>BF08550F2E7EC3C700D3B610</title>
<g id="a_node8"><a xlink:title="id=BF08550F2E7EC3C700D3B610 isa=PBXFileReference">
<path fill="Wheat" stroke="black" d="M981,-606.75C981,-606.75 786.5,-606.75 786.5,-606.75 780.5,-606.75 774.5,-600.75 774.5,-594.75 774.5,-594.75 774.5,-546.75 774.5,-546.75 774.5,-540.75 780.5,-534.75 786.5,-534.75 786.5,-534.75 981,-534.75 981,-534.75 987,-534.75 993,-540.75 993,-546.75 993,-546.75 993,-594.75 993,-594.75 993,-600.75 987,-606.75 981,-606.75"/>
<text xml:space="preserve" text-anchor="start" x="782.5" y="-564.02" font-family="Helvetica,sans-Serif" font-weight="bold" font-size="18.00">geoCoordClassifier.app</text>
</a>
</g>
</g>
<!-- BF08550E2E7EC3C700D3B610&#45;&gt;BF08550F2E7EC3C700D3B610 -->
<g id="edge14" class="edge">
<title>BF08550E2E7EC3C700D3B610&#45;&gt;BF08550F2E7EC3C700D3B610</title>
<path fill="none" stroke="Blue" stroke-width="3.5" stroke-dasharray="5,2" d="M883.75,-428.74C883.75,-454.6 883.75,-490.08 883.75,-518.99"/>
<polygon fill="Blue" stroke="Blue" stroke-width="3.5" points="880.25,-518.97 883.75,-528.97 887.25,-518.97 880.25,-518.97"/>
<text xml:space="preserve" text-anchor="middle" x="926.5" y="-472.75" font-family="Times,serif" font-size="20.00" fill="RoyalBlue"> &#160;reference</text>
</g>
<!-- BF08550E2E7EC3C700D3B610&#45;&gt;BF08553D2E7EC44400D3B610 -->
<g id="edge15" class="edge">
<title>BF08550E2E7EC3C700D3B610&#45;&gt;BF08553D2E7EC44400D3B610</title>
<path fill="none" stroke="Green" stroke-width="3.5" d="M965.42,-428.95C1035.11,-459.21 1134.92,-502.54 1205.37,-533.12"/>
<polygon fill="Green" stroke="Green" stroke-width="3.5" points="1203.63,-536.18 1214.19,-536.95 1206.41,-529.76 1203.63,-536.18"/>
<text xml:space="preserve" text-anchor="middle" x="1146.92" y="-473.52" font-family="Times,serif" font-size="18.00" fill="Green"> &#160;dependency</text>
</g>
<!-- BF56FD1E2E7EF99400D2F271 -->
<g id="node10" class="node">
<title>BF56FD1E2E7EF99400D2F271</title>
<g id="a_node10"><a xlink:title="id=BF56FD1E2E7EF99400D2F271 isa=PBXFileReference">
<path fill="Wheat" stroke="black" d="M1625.25,-428.5C1625.25,-428.5 1438.25,-428.5 1438.25,-428.5 1432.25,-428.5 1426.25,-422.5 1426.25,-416.5 1426.25,-416.5 1426.25,-368.5 1426.25,-368.5 1426.25,-362.5 1432.25,-356.5 1438.25,-356.5 1438.25,-356.5 1625.25,-356.5 1625.25,-356.5 1631.25,-356.5 1637.25,-362.5 1637.25,-368.5 1637.25,-368.5 1637.25,-416.5 1637.25,-416.5 1637.25,-422.5 1631.25,-428.5 1625.25,-428.5"/>
<text xml:space="preserve" text-anchor="start" x="1434.25" y="-385.77" font-family="Helvetica,sans-Serif" font-weight="bold" font-size="18.00">geoCoordClassifierCLI</text>
</a>
</g>
</g>
<!-- BF56FD1D2E7EF99400D2F271&#45;&gt;BF56FD1E2E7EF99400D2F271 -->
<g id="edge16" class="edge">
<title>BF56FD1D2E7EF99400D2F271&#45;&gt;BF56FD1E2E7EF99400D2F271</title>
<path fill="none" stroke="Blue" stroke-width="3.5" stroke-dasharray="5,2" d="M1399.74,-250.49C1425.18,-277.66 1460.57,-315.47 1488.31,-345.1"/>
<polygon fill="Blue" stroke="Blue" stroke-width="3.5" points="1485.52,-347.24 1494.91,-352.15 1490.63,-342.46 1485.52,-347.24"/>
<text xml:space="preserve" text-anchor="middle" x="1496.95" y="-294.5" font-family="Times,serif" font-size="20.00" fill="RoyalBlue"> &#160;reference</text>
</g>
<!-- BF56FD1D2E7EF99400D2F271&#45;&gt;BF08553D2E7EC44400D3B610 -->
<g id="edge17" class="edge">
<title>BF56FD1D2E7EF99400D2F271&#45;&gt;BF08553D2E7EC44400D3B610</title>
<path fill="none" stroke="Green" stroke-width="3.5" d="M1353.79,-250.51C1343.8,-278.83 1330.3,-319.78 1321.75,-356.5 1308.94,-411.54 1300.11,-475.82 1295.02,-519.31"/>
<polygon fill="Green" stroke="Green" stroke-width="3.5" points="1291.56,-518.74 1293.91,-529.07 1298.52,-519.53 1291.56,-518.74"/>
<text xml:space="preserve" text-anchor="middle" x="1369.75" y="-384.4" font-family="Times,serif" font-size="18.00" fill="Green"> &#160;dependency</text>
</g>
<!-- BF0855252E7EC3C900D3B610&#45;&gt;BF08550E2E7EC3C700D3B610 -->
<g id="edge19" class="edge">
<title>BF0855252E7EC3C900D3B610&#45;&gt;BF08550E2E7EC3C700D3B610</title>
<path fill="none" stroke="Green" stroke-width="3.5" d="M800.6,-250.35C809.49,-269.34 821.12,-293.03 832.75,-313.5 838.42,-323.48 844.86,-333.91 851.21,-343.79"/>
<polygon fill="Green" stroke="Green" stroke-width="3.5" points="848.13,-345.47 856.54,-351.92 853.99,-341.64 848.13,-345.47"/>
<text xml:space="preserve" text-anchor="middle" x="880.75" y="-295.27" font-family="Times,serif" font-size="18.00" fill="Green"> &#160;dependency</text>
</g>
<!-- BF0855262E7EC3C900D3B610 -->
<g id="node13" class="node">
<title>BF0855262E7EC3C900D3B610</title>
<g id="a_node13"><a xlink:title="id=BF0855262E7EC3C900D3B610 isa=PBXFileReference">
<path fill="Wheat" stroke="black" d="M763.25,-428.5C763.25,-428.5 486.25,-428.5 486.25,-428.5 480.25,-428.5 474.25,-422.5 474.25,-416.5 474.25,-416.5 474.25,-368.5 474.25,-368.5 474.25,-362.5 480.25,-356.5 486.25,-356.5 486.25,-356.5 763.25,-356.5 763.25,-356.5 769.25,-356.5 775.25,-362.5 775.25,-368.5 775.25,-368.5 775.25,-416.5 775.25,-416.5 775.25,-422.5 769.25,-428.5 763.25,-428.5"/>
<text xml:space="preserve" text-anchor="start" x="482.25" y="-385.77" font-family="Helvetica,sans-Serif" font-weight="bold" font-size="18.00">geoCoordClassifierUITests.xctest</text>
</a>
</g>
</g>
<!-- BF0855252E7EC3C900D3B610&#45;&gt;BF0855262E7EC3C900D3B610 -->
<g id="edge18" class="edge">
<title>BF0855252E7EC3C900D3B610&#45;&gt;BF0855262E7EC3C900D3B610</title>
<path fill="none" stroke="Blue" stroke-width="3.5" stroke-dasharray="5,2" d="M752.76,-250.49C728.2,-277.54 694.07,-315.14 667.23,-344.71"/>
<polygon fill="Blue" stroke="Blue" stroke-width="3.5" points="664.65,-342.34 660.52,-352.09 669.84,-347.04 664.65,-342.34"/>
<text xml:space="preserve" text-anchor="middle" x="752.3" y="-294.5" font-family="Times,serif" font-size="20.00" fill="RoyalBlue"> &#160;reference</text>
</g>
<!-- BF08553D2E7EC44400D3B610&#45;&gt;BF56FD632E7F077B00D2F271 -->
<g id="edge21" class="edge">
<title>BF08553D2E7EC44400D3B610&#45;&gt;BF56FD632E7F077B00D2F271</title>
<path fill="none" stroke="Green" stroke-width="3.5" d="M1285.15,-606.99C1281.76,-632.97 1277.1,-668.66 1273.32,-697.64"/>
<polygon fill="Green" stroke="Green" stroke-width="3.5" points="1269.89,-696.89 1272.07,-707.26 1276.83,-697.8 1269.89,-696.89"/>
<text xml:space="preserve" text-anchor="middle" x="1326.94" y="-651.77" font-family="Times,serif" font-size="18.00" fill="Green"> &#160;dependency</text>
</g>
<!-- BF08553E2E7EC44400D3B610 -->
<g id="node15" class="node">
<title>BF08553E2E7EC44400D3B610</title>
<g id="a_node15"><a xlink:title="id=BF08553E2E7EC44400D3B610 isa=PBXFileReference">
<path fill="LightGreen" stroke="black" d="M1708.83,-744.03C1708.83,-744.03 1708.83,-753.97 1708.83,-753.97 1708.83,-758.94 1703.95,-764.86 1699.07,-765.81 1699.07,-765.81 1610.17,-783.1 1610.17,-783.1 1605.29,-784.05 1595.44,-785 1590.47,-785 1590.47,-785 1457.03,-785 1457.03,-785 1452.06,-785 1442.21,-784.05 1437.33,-783.1 1437.33,-783.1 1348.43,-765.81 1348.43,-765.81 1343.55,-764.86 1338.67,-758.94 1338.67,-753.97 1338.67,-753.97 1338.67,-744.03 1338.67,-744.03 1338.67,-739.06 1343.55,-733.14 1348.43,-732.19 1348.43,-732.19 1437.33,-714.9 1437.33,-714.9 1442.21,-713.95 1452.06,-713 1457.03,-713 1457.03,-713 1590.47,-713 1590.47,-713 1595.44,-713 1605.29,-713.95 1610.17,-714.9 1610.17,-714.9 1699.07,-732.19 1699.07,-732.19 1703.95,-733.14 1708.83,-739.06 1708.83,-744.03"/>
<text xml:space="preserve" text-anchor="start" x="1373" y="-742.27" font-family="Helvetica,sans-Serif" font-weight="bold" font-size="18.00">geoCoordClassifierCore.framework</text>
</a>
</g>
</g>
<!-- BF08553D2E7EC44400D3B610&#45;&gt;BF08553E2E7EC44400D3B610 -->
<g id="edge20" class="edge">
<title>BF08553D2E7EC44400D3B610&#45;&gt;BF08553E2E7EC44400D3B610</title>
<path fill="none" stroke="Blue" stroke-width="3.5" stroke-dasharray="5,2" d="M1336.82,-607.2C1373.63,-634.93 1425.03,-673.64 1464.61,-703.46"/>
<polygon fill="Blue" stroke="Blue" stroke-width="3.5" points="1462.43,-706.19 1472.52,-709.41 1466.64,-700.6 1462.43,-706.19"/>
<text xml:space="preserve" text-anchor="middle" x="1456.52" y="-651" font-family="Times,serif" font-size="20.00" fill="RoyalBlue"> &#160;reference</text>
</g>
</g>
</svg>
