<?xml version="1.0" encoding="UTF-8" standalone="no"?>
<!DOCTYPE svg PUBLIC "-//W3C//DTD SVG 1.1//EN"
 "http://www.w3.org/Graphics/SVG/1.1/DTD/svg11.dtd">
<!-- Generated by graphviz version 13.0.0 (20250608.1624)
 -->
<!-- Pages: 1 -->
<svg width="804pt" height="440pt"
 viewBox="0.00 0.00 804.00 440.00" xmlns="http://www.w3.org/2000/svg" xmlns:xlink="http://www.w3.org/1999/xlink">
<g id="graph0" class="graph" transform="scale(1 1) rotate(0) translate(4 436)">
<!-- BF0855472E7EC44400D3B610 -->
<g id="node1" class="node">
<title>BF0855472E7EC44400D3B610</title>
<polygon fill="#f0f0f0" stroke="black" points="275.5,-72 0,-72 0,0 275.5,0 275.5,-72"/>
<text xml:space="preserve" text-anchor="middle" x="137.75" y="-27.5" font-family="Helvetica,sans-Serif" font-size="20.00">geoCoordClassifierCoreTests</text>
</g>
<!-- BF08553D2E7EC44400D3B610 -->
<g id="node2" class="node">
<title>BF08553D2E7EC44400D3B610</title>
<polygon fill="#f0f0f0" stroke="black" points="486.62,-432 256.88,-432 256.88,-360 486.62,-360 486.62,-432"/>
<text xml:space="preserve" text-anchor="middle" x="371.75" y="-387.5" font-family="Helvetica,sans-Serif" font-size="20.00">geoCoordClassifierCore</text>
</g>
<!-- BF0855472E7EC44400D3B610&#45;&gt;BF08553D2E7EC44400D3B610 -->
<g id="edge1" class="edge">
<title>BF0855472E7EC44400D3B610&#45;&gt;BF08553D2E7EC44400D3B610</title>
<path fill="none" stroke="Green" stroke-width="3.5" d="M158.51,-72.47C183.91,-115.48 228.63,-189.93 269.75,-252 291.22,-284.41 316.6,-320 336.67,-347.57"/>
<polygon fill="Green" stroke="Green" stroke-width="3.5" points="333.63,-349.34 342.36,-355.35 339.29,-345.21 333.63,-349.34"/>
</g>
<!-- BF08550E2E7EC3C700D3B610 -->
<g id="node3" class="node">
<title>BF08550E2E7EC3C700D3B610</title>
<polygon fill="#f0f0f0" stroke="black" points="464.88,-252 278.62,-252 278.62,-180 464.88,-180 464.88,-252"/>
<text xml:space="preserve" text-anchor="middle" x="371.75" y="-207.5" font-family="Helvetica,sans-Serif" font-size="20.00">geoCoordClassifier</text>
</g>
<!-- BF0855472E7EC44400D3B610&#45;&gt;BF08550E2E7EC3C700D3B610 -->
<g id="edge2" class="edge">
<title>BF0855472E7EC44400D3B610&#45;&gt;BF08550E2E7EC3C700D3B610</title>
<path fill="none" stroke="Green" stroke-width="3.5" d="M184.26,-72.38C221.34,-100.59 273.49,-140.25 313.37,-170.59"/>
<polygon fill="Green" stroke="Green" stroke-width="3.5" points="311.03,-173.21 321.11,-176.48 315.27,-167.64 311.03,-173.21"/>
</g>
<!-- BF08550E2E7EC3C700D3B610&#45;&gt;BF08553D2E7EC44400D3B610 -->
<g id="edge4" class="edge">
<title>BF08550E2E7EC3C700D3B610&#45;&gt;BF08553D2E7EC44400D3B610</title>
<path fill="none" stroke="Green" stroke-width="3.5" d="M371.75,-252.17C371.75,-278.53 371.75,-315 371.75,-344.48"/>
<polygon fill="Green" stroke="Green" stroke-width="3.5" points="368.25,-344.3 371.75,-354.3 375.25,-344.3 368.25,-344.3"/>
</g>
<!-- BF08551B2E7EC3C900D3B610 -->
<g id="node4" class="node">
<title>BF08551B2E7EC3C900D3B610</title>
<polygon fill="#f0f0f0" stroke="black" points="525.75,-72 293.75,-72 293.75,0 525.75,0 525.75,-72"/>
<text xml:space="preserve" text-anchor="middle" x="409.75" y="-27.5" font-family="Helvetica,sans-Serif" font-size="20.00">geoCoordClassifierTests</text>
</g>
<!-- BF08551B2E7EC3C900D3B610&#45;&gt;BF08550E2E7EC3C700D3B610 -->
<g id="edge3" class="edge">
<title>BF08551B2E7EC3C900D3B610&#45;&gt;BF08550E2E7EC3C700D3B610</title>
<path fill="none" stroke="Green" stroke-width="3.5" d="M402.24,-72.17C396.59,-98.65 388.76,-135.33 382.45,-164.89"/>
<polygon fill="Green" stroke="Green" stroke-width="3.5" points="379.08,-163.91 380.41,-174.42 385.92,-165.37 379.08,-163.91"/>
</g>
<!-- BF56FD1D2E7EF99400D2F271 -->
<g id="node5" class="node">
<title>BF56FD1D2E7EF99400D2F271</title>
<polygon fill="#f0f0f0" stroke="black" points="700.25,-252 483.25,-252 483.25,-180 700.25,-180 700.25,-252"/>
<text xml:space="preserve" text-anchor="middle" x="591.75" y="-207.5" font-family="Helvetica,sans-Serif" font-size="20.00">geoCoordClassifierCLI</text>
</g>
<!-- BF56FD1D2E7EF99400D2F271&#45;&gt;BF08553D2E7EC44400D3B610 -->
<g id="edge5" class="edge">
<title>BF56FD1D2E7EF99400D2F271&#45;&gt;BF08553D2E7EC44400D3B610</title>
<path fill="none" stroke="Green" stroke-width="3.5" d="M548.02,-252.38C513.31,-280.47 464.56,-319.91 427.12,-350.2"/>
<polygon fill="Green" stroke="Green" stroke-width="3.5" points="425.09,-347.34 419.51,-356.36 429.49,-352.79 425.09,-347.34"/>
</g>
<!-- BF0855252E7EC3C900D3B610 -->
<g id="node6" class="node">
<title>BF0855252E7EC3C900D3B610</title>
<polygon fill="#f0f0f0" stroke="black" points="795.5,-72 544,-72 544,0 795.5,0 795.5,-72"/>
<text xml:space="preserve" text-anchor="middle" x="669.75" y="-27.5" font-family="Helvetica,sans-Serif" font-size="20.00">geoCoordClassifierUITests</text>
</g>
<!-- BF0855252E7EC3C900D3B610&#45;&gt;BF08550E2E7EC3C700D3B610 -->
<g id="edge6" class="edge">
<title>BF0855252E7EC3C900D3B610&#45;&gt;BF08550E2E7EC3C700D3B610</title>
<path fill="none" stroke="Green" stroke-width="3.5" d="M610.52,-72.38C562.66,-100.97 495.1,-141.32 444.06,-171.81"/>
<polygon fill="Green" stroke="Green" stroke-width="3.5" points="442.46,-168.69 435.67,-176.82 446.05,-174.7 442.46,-168.69"/>
</g>
</g>
</svg>
