<?xml version="1.0" encoding="UTF-8" standalone="no"?>
<!DOCTYPE svg PUBLIC "-//W3C//DTD SVG 1.1//EN"
 "http://www.w3.org/Graphics/SVG/1.1/DTD/svg11.dtd">
<!-- Generated by graphviz version 2.43.0 (0)
 -->
<!-- Title: G Pages: 1 -->
<svg width="1966pt" height="1501pt"
 viewBox="0.00 0.00 1966.00 1501.00" xmlns="http://www.w3.org/2000/svg" xmlns:xlink="http://www.w3.org/1999/xlink">
<g id="graph0" class="graph" transform="scale(1 1) rotate(0) translate(4 1497)">
<title>G</title>
<!-- ProjectRoot -->
<g id="node1" class="node">
<title>ProjectRoot</title>
<polygon fill="#add8e6" stroke="black" points="604,-770 0,-770 0,-662 604,-662 604,-770"/>
<text text-anchor="start" x="31.5" y="-724.2" font-family="Helvetica,sans-Serif" font-size="36.00"> </text>
<text text-anchor="start" x="43.5" y="-724.2" font-family="Helvetica,sans-Serif" font-weight="bold" font-size="36.00">Geo Coordinate Classifier:</text>
<text text-anchor="start" x="8" y="-688.2" font-family="Helvetica,sans-Serif" font-weight="bold" font-size="36.00">MLOps &amp; Deployment Topics</text>
<text text-anchor="start" x="584" y="-688.2" font-family="Helvetica,sans-Serif" font-size="36.00"> </text>
</g>
<!-- A1 -->
<g id="node2" class="node">
<title>A1</title>
<polygon fill="#d8bfd8" stroke="black" points="974,-1258 720,-1258 720,-1200 974,-1200 974,-1258"/>
<text text-anchor="start" x="728" y="-1234.8" font-family="Helvetica,sans-Serif" font-size="24.00"> </text>
<text text-anchor="start" x="736" y="-1234.8" font-family="Helvetica,sans-Serif" font-weight="bold" font-size="24.00">Model Pipeline &amp;</text>
<text text-anchor="start" x="755.5" y="-1210.8" font-family="Helvetica,sans-Serif" font-weight="bold" font-size="24.00">Optimization</text>
<text text-anchor="start" x="930.5" y="-1210.8" font-family="Helvetica,sans-Serif" font-size="24.00"> </text>
</g>
<!-- ProjectRoot&#45;&gt;A1 -->
<g id="edge1" class="edge">
<title>ProjectRoot&#45;&gt;A1</title>
<path fill="none" stroke="Green" stroke-width="3" d="M360.34,-770.17C471.56,-875.24 713.87,-1104.17 807.76,-1192.87"/>
<polygon fill="Green" stroke="Green" stroke-width="3" points="805.38,-1195.44 815.06,-1199.77 810.19,-1190.35 805.38,-1195.44"/>
<text text-anchor="middle" x="662" y="-1096.6" font-family="Times,serif" font-size="18.00">COVERS</text>
</g>
<!-- A2 -->
<g id="node3" class="node">
<title>A2</title>
<polygon fill="#f0e68c" stroke="black" points="955,-901 739,-901 739,-843 955,-843 955,-901"/>
<text text-anchor="start" x="767.5" y="-877.8" font-family="Helvetica,sans-Serif" font-size="24.00"> </text>
<text text-anchor="start" x="775.5" y="-877.8" font-family="Helvetica,sans-Serif" font-weight="bold" font-size="24.00">Native App</text>
<text text-anchor="start" x="758" y="-853.8" font-family="Helvetica,sans-Serif" font-weight="bold" font-size="24.00">Architecture</text>
<text text-anchor="start" x="928" y="-853.8" font-family="Helvetica,sans-Serif" font-size="24.00"> </text>
</g>
<!-- ProjectRoot&#45;&gt;A2 -->
<g id="edge2" class="edge">
<title>ProjectRoot&#45;&gt;A2</title>
<path fill="none" stroke="Green" stroke-width="3" d="M491.01,-770.01C572.37,-793.39 664.81,-819.95 734.96,-840.1"/>
<polygon fill="Green" stroke="Green" stroke-width="3" points="734.13,-843.5 744.71,-842.9 736.07,-836.77 734.13,-843.5"/>
<text text-anchor="middle" x="662" y="-836.6" font-family="Times,serif" font-size="18.00">COVERS</text>
</g>
<!-- A3 -->
<g id="node4" class="node">
<title>A3</title>
<polygon fill="#90ee90" stroke="black" points="1510,-173 1212,-173 1212,-115 1510,-115 1510,-173"/>
<text text-anchor="start" x="1283.5" y="-149.8" font-family="Helvetica,sans-Serif" font-size="24.00"> </text>
<text text-anchor="start" x="1291.5" y="-149.8" font-family="Helvetica,sans-Serif" font-weight="bold" font-size="24.00">Platform &amp;</text>
<text text-anchor="start" x="1220" y="-125.8" font-family="Helvetica,sans-Serif" font-weight="bold" font-size="24.00">Deployment Targets</text>
<text text-anchor="start" x="1494" y="-125.8" font-family="Helvetica,sans-Serif" font-size="24.00"> </text>
</g>
<!-- ProjectRoot&#45;&gt;A3 -->
<g id="edge3" class="edge">
<title>ProjectRoot&#45;&gt;A3</title>
<path fill="none" stroke="Green" stroke-width="3" d="M370.08,-661.77C489.07,-567.75 747.66,-373.14 992,-254 1062.55,-219.6 1146.03,-193.58 1215.63,-175.5"/>
<polygon fill="Green" stroke="Green" stroke-width="3" points="1216.54,-178.88 1225.36,-173 1214.8,-172.1 1216.54,-178.88"/>
<text text-anchor="middle" x="847" y="-410.6" font-family="Times,serif" font-size="18.00">COVERS</text>
</g>
<!-- A4 -->
<g id="node5" class="node">
<title>A4</title>
<polygon fill="#ffa07a" stroke="black" points="966,-523 728,-523 728,-465 966,-465 966,-523"/>
<text text-anchor="start" x="736" y="-499.8" font-family="Helvetica,sans-Serif" font-size="24.00"> </text>
<text text-anchor="start" x="744" y="-499.8" font-family="Helvetica,sans-Serif" font-weight="bold" font-size="24.00">Interoperability</text>
<text text-anchor="start" x="793.5" y="-475.8" font-family="Helvetica,sans-Serif" font-weight="bold" font-size="24.00">&amp; Tools</text>
<text text-anchor="start" x="892.5" y="-475.8" font-family="Helvetica,sans-Serif" font-size="24.00"> </text>
</g>
<!-- ProjectRoot&#45;&gt;A4 -->
<g id="edge4" class="edge">
<title>ProjectRoot&#45;&gt;A4</title>
<path fill="none" stroke="Green" stroke-width="3" d="M435.14,-661.98C538.42,-619.75 678.63,-562.43 765.65,-526.85"/>
<polygon fill="Green" stroke="Green" stroke-width="3" points="767.01,-530.07 774.95,-523.05 764.36,-523.59 767.01,-530.07"/>
<text text-anchor="middle" x="662" y="-591.6" font-family="Times,serif" font-size="18.00">COVERS</text>
</g>
<!-- C1_1 -->
<g id="node6" class="node">
<title>C1_1</title>
<polygon fill="#f0f0f0" stroke="black" points="1466,-1337 1256,-1337 1256,-1277 1466,-1277 1466,-1337"/>
<text text-anchor="middle" x="1361" y="-1313.8" font-family="Helvetica,sans-Serif" font-size="24.00">PyTorch Training</text>
<text text-anchor="middle" x="1361" y="-1287.8" font-family="Helvetica,sans-Serif" font-size="24.00">(Trivial Model)</text>
</g>
<!-- A1&#45;&gt;C1_1 -->
<g id="edge5" class="edge">
<title>A1&#45;&gt;C1_1</title>
<path fill="none" stroke="Green" stroke-width="3" d="M974.23,-1248.23C1057.29,-1260.88 1165.13,-1277.31 1245.67,-1289.58"/>
<polygon fill="Green" stroke="Green" stroke-width="3" points="1245.43,-1293.09 1255.84,-1291.13 1246.49,-1286.17 1245.43,-1293.09"/>
</g>
<!-- C1_2 -->
<g id="node7" class="node">
<title>C1_2</title>
<polygon fill="#f0f0f0" stroke="black" points="1486.5,-1259 1235.5,-1259 1235.5,-1199 1486.5,-1199 1486.5,-1259"/>
<text text-anchor="middle" x="1361" y="-1235.8" font-family="Helvetica,sans-Serif" font-size="24.00">Model Quantization</text>
<text text-anchor="middle" x="1361" y="-1209.8" font-family="Helvetica,sans-Serif" font-size="24.00">(8&#45;bit)</text>
</g>
<!-- A1&#45;&gt;C1_2 -->
<g id="edge6" class="edge">
<title>A1&#45;&gt;C1_2</title>
<path fill="none" stroke="Green" stroke-width="3" d="M974.23,-1229C1050.32,-1229 1147.2,-1229 1224.84,-1229"/>
<polygon fill="Green" stroke="Green" stroke-width="3" points="1225.18,-1232.5 1235.18,-1229 1225.18,-1225.5 1225.18,-1232.5"/>
</g>
<!-- C1_3 -->
<g id="node8" class="node">
<title>C1_3</title>
<polygon fill="#f0f0f0" stroke="black" points="1486.5,-1181 1235.5,-1181 1235.5,-1121 1486.5,-1121 1486.5,-1181"/>
<text text-anchor="middle" x="1361" y="-1157.8" font-family="Helvetica,sans-Serif" font-size="24.00">Normalization Data</text>
<text text-anchor="middle" x="1361" y="-1131.8" font-family="Helvetica,sans-Serif" font-size="24.00">Embedding</text>
</g>
<!-- A1&#45;&gt;C1_3 -->
<g id="edge7" class="edge">
<title>A1&#45;&gt;C1_3</title>
<path fill="none" stroke="Green" stroke-width="3" d="M974.23,-1209.77C1050.32,-1198.18 1147.2,-1183.42 1224.84,-1171.59"/>
<polygon fill="Green" stroke="Green" stroke-width="3" points="1225.82,-1174.98 1235.18,-1170.02 1224.77,-1168.06 1225.82,-1174.98"/>
</g>
<!-- C1_4 -->
<g id="node9" class="node">
<title>C1_4</title>
<polygon fill="#f0f0f0" stroke="black" points="1476,-1103 1246,-1103 1246,-1045 1476,-1045 1476,-1103"/>
<text text-anchor="middle" x="1361" y="-1067.8" font-family="Helvetica,sans-Serif" font-size="24.00">ONNX Conversion</text>
</g>
<!-- A1&#45;&gt;C1_4 -->
<g id="edge8" class="edge">
<title>A1&#45;&gt;C1_4</title>
<path fill="none" stroke="Green" stroke-width="3" d="M920.43,-1199.89C943.19,-1191.14 968.51,-1181.8 992,-1174 1072.27,-1147.37 1164.06,-1122.41 1235.89,-1104.1"/>
<polygon fill="Green" stroke="Green" stroke-width="3" points="1237.06,-1107.41 1245.89,-1101.56 1235.33,-1100.63 1237.06,-1107.41"/>
</g>
<!-- C1_5 -->
<g id="node10" class="node">
<title>C1_5</title>
<polygon fill="#f0f0f0" stroke="black" points="1489.5,-1493 1232.5,-1493 1232.5,-1433 1489.5,-1433 1489.5,-1493"/>
<text text-anchor="middle" x="1361" y="-1469.8" font-family="Helvetica,sans-Serif" font-size="24.00">Core ML Conversion</text>
<text text-anchor="middle" x="1361" y="-1443.8" font-family="Helvetica,sans-Serif" font-size="24.00">(.mlpackage)</text>
</g>
<!-- A1&#45;&gt;C1_5 -->
<g id="edge9" class="edge">
<title>A1&#45;&gt;C1_5</title>
<path fill="none" stroke="Green" stroke-width="3" d="M888.91,-1258.01C917.2,-1277.49 956.08,-1303.13 992,-1323 1085.79,-1374.88 1110.1,-1387.84 1211,-1424 1216.56,-1425.99 1222.28,-1427.93 1228.07,-1429.81"/>
<polygon fill="Green" stroke="Green" stroke-width="3" points="1227.3,-1433.24 1237.89,-1432.92 1229.42,-1426.57 1227.3,-1433.24"/>
</g>
<!-- C1_6 -->
<g id="node11" class="node">
<title>C1_6</title>
<polygon fill="#f0f0f0" stroke="black" points="1504.5,-1415 1217.5,-1415 1217.5,-1355 1504.5,-1355 1504.5,-1415"/>
<text text-anchor="middle" x="1361" y="-1391.8" font-family="Helvetica,sans-Serif" font-size="24.00">Automated Sequential</text>
<text text-anchor="middle" x="1361" y="-1365.8" font-family="Helvetica,sans-Serif" font-size="24.00">Evaluation</text>
</g>
<!-- A1&#45;&gt;C1_6 -->
<g id="edge10" class="edge">
<title>A1&#45;&gt;C1_6</title>
<path fill="none" stroke="Green" stroke-width="3" d="M930.06,-1258.09C950.26,-1265.08 971.87,-1272.43 992,-1279 1088.76,-1310.59 1113.08,-1318.22 1211,-1346 1218.33,-1348.08 1225.86,-1350.18 1233.48,-1352.27"/>
<polygon fill="Green" stroke="Green" stroke-width="3" points="1232.59,-1355.65 1243.16,-1354.9 1234.43,-1348.9 1232.59,-1355.65"/>
</g>
<!-- C2_1 -->
<g id="node12" class="node">
<title>C2_1</title>
<polygon fill="#f0f0f0" stroke="black" points="1453.5,-873 1268.5,-873 1268.5,-813 1453.5,-813 1453.5,-873"/>
<text text-anchor="middle" x="1361" y="-849.8" font-family="Helvetica,sans-Serif" font-size="24.00">Swift App Dev</text>
<text text-anchor="middle" x="1361" y="-823.8" font-family="Helvetica,sans-Serif" font-size="24.00">(GUI/CLI)</text>
</g>
<!-- A2&#45;&gt;C2_1 -->
<g id="edge11" class="edge">
<title>A2&#45;&gt;C2_1</title>
<path fill="none" stroke="Green" stroke-width="3" d="M955.02,-865.94C1044.13,-860.89 1170.17,-853.75 1257.89,-848.78"/>
<polygon fill="Green" stroke="Green" stroke-width="3" points="1258.33,-852.26 1268.12,-848.2 1257.94,-845.28 1258.33,-852.26"/>
</g>
<!-- C2_2 -->
<g id="node13" class="node">
<title>C2_2</title>
<polygon fill="#f0f0f0" stroke="black" points="1473.5,-989 1248.5,-989 1248.5,-929 1473.5,-929 1473.5,-989"/>
<text text-anchor="middle" x="1361" y="-965.8" font-family="Helvetica,sans-Serif" font-size="24.00">ClassifierProtocol</text>
<text text-anchor="middle" x="1361" y="-939.8" font-family="Helvetica,sans-Serif" font-size="24.00">(Decoupling)</text>
</g>
<!-- A2&#45;&gt;C2_2 -->
<g id="edge12" class="edge">
<title>A2&#45;&gt;C2_2</title>
<path fill="none" stroke="Green" stroke-width="3" d="M936.5,-901.02C954.71,-906.25 973.86,-911.24 992,-915 1073.38,-931.89 1166.33,-942.93 1238.45,-949.74"/>
<polygon fill="Green" stroke="Green" stroke-width="3" points="1238.21,-953.23 1248.49,-950.67 1238.86,-946.26 1238.21,-953.23"/>
<text text-anchor="middle" x="1092.5" y="-949.6" font-family="Times,serif" font-size="18.00">KEY ARCHITECTURE</text>
</g>
<!-- C2_3 -->
<g id="node14" class="node">
<title>C2_3</title>
<polygon fill="#f0f0f0" stroke="black" points="1925.5,-931 1717.5,-931 1717.5,-871 1925.5,-871 1925.5,-931"/>
<text text-anchor="middle" x="1821.5" y="-907.8" font-family="Helvetica,sans-Serif" font-size="24.00">ONNX Backend</text>
<text text-anchor="middle" x="1821.5" y="-881.8" font-family="Helvetica,sans-Serif" font-size="24.00">Implementation</text>
</g>
<!-- A2&#45;&gt;C2_3 -->
<g id="edge13" class="edge">
<title>A2&#45;&gt;C2_3</title>
<path fill="none" stroke="Green" stroke-width="3" d="M955.32,-875.2C1140.37,-880.72 1517.78,-891.97 1707.01,-897.62"/>
<polygon fill="Green" stroke="Green" stroke-width="3" points="1707.16,-901.12 1717.26,-897.92 1707.37,-894.12 1707.16,-901.12"/>
</g>
<!-- C2_4 -->
<g id="node15" class="node">
<title>C2_4</title>
<polygon fill="#f0f0f0" stroke="black" points="1933.5,-1181 1709.5,-1181 1709.5,-1121 1933.5,-1121 1933.5,-1181"/>
<text text-anchor="middle" x="1821.5" y="-1157.8" font-family="Helvetica,sans-Serif" font-size="24.00">Core ML Backend</text>
<text text-anchor="middle" x="1821.5" y="-1131.8" font-family="Helvetica,sans-Serif" font-size="24.00">Implementation</text>
</g>
<!-- A2&#45;&gt;C2_4 -->
<g id="edge14" class="edge">
<title>A2&#45;&gt;C2_4</title>
<path fill="none" stroke="Green" stroke-width="3" d="M881.91,-901.11C909.63,-923.22 950.84,-952.41 992,-968 1083.87,-1002.8 1113.29,-987.78 1211,-998 1312.05,-1008.57 1572.2,-994.46 1667,-1031 1713.21,-1048.81 1756.78,-1085.5 1785.6,-1113.65"/>
<polygon fill="Green" stroke="Green" stroke-width="3" points="1783.41,-1116.41 1792.97,-1120.97 1788.34,-1111.44 1783.41,-1116.41"/>
</g>
<!-- C2_5 -->
<g id="node16" class="node">
<title>C2_5</title>
<polygon fill="#f0f0f0" stroke="black" points="1506.5,-717 1215.5,-717 1215.5,-659 1506.5,-659 1506.5,-717"/>
<text text-anchor="middle" x="1361" y="-681.8" font-family="Helvetica,sans-Serif" font-size="24.00">Unit Test Development</text>
</g>
<!-- A2&#45;&gt;C2_5 -->
<g id="edge15" class="edge">
<title>A2&#45;&gt;C2_5</title>
<path fill="none" stroke="Green" stroke-width="3" d="M868.38,-842.98C893.37,-809.95 938.97,-757.3 992,-732 1057.46,-700.77 1136.61,-688.51 1204.71,-684.57"/>
<polygon fill="Green" stroke="Green" stroke-width="3" points="1205.31,-688.05 1215.11,-684.03 1204.94,-681.06 1205.31,-688.05"/>
</g>
<!-- C3_1 -->
<g id="node17" class="node">
<title>C3_1</title>
<polygon fill="#f0f0f0" stroke="black" points="1904.5,-136 1738.5,-136 1738.5,-76 1904.5,-76 1904.5,-136"/>
<text text-anchor="middle" x="1821.5" y="-112.8" font-family="Helvetica,sans-Serif" font-size="24.00">macOS App</text>
<text text-anchor="middle" x="1821.5" y="-86.8" font-family="Helvetica,sans-Serif" font-size="24.00">(Xcode)</text>
</g>
<!-- A3&#45;&gt;C3_1 -->
<g id="edge16" class="edge">
<title>A3&#45;&gt;C3_1</title>
<path fill="none" stroke="Green" stroke-width="3" d="M1510.23,-131.71C1581.85,-125.78 1665.59,-118.84 1728.01,-113.67"/>
<polygon fill="Green" stroke="Green" stroke-width="3" points="1728.55,-117.13 1738.23,-112.82 1727.97,-110.16 1728.55,-117.13"/>
</g>
<!-- C3_2 -->
<g id="node18" class="node">
<title>C3_2</title>
<polygon fill="#f0f0f0" stroke="black" points="1904.5,-58 1738.5,-58 1738.5,0 1904.5,0 1904.5,-58"/>
<text text-anchor="middle" x="1821.5" y="-22.8" font-family="Helvetica,sans-Serif" font-size="24.00">macOS CLI</text>
</g>
<!-- A3&#45;&gt;C3_2 -->
<g id="edge17" class="edge">
<title>A3&#45;&gt;C3_2</title>
<path fill="none" stroke="Green" stroke-width="3" d="M1477.7,-114.98C1555.36,-95.5 1656.27,-70.19 1728.46,-52.08"/>
<polygon fill="Green" stroke="Green" stroke-width="3" points="1729.61,-55.41 1738.45,-49.58 1727.9,-48.62 1729.61,-55.41"/>
</g>
<!-- C3_3 -->
<g id="node19" class="node">
<title>C3_3</title>
<polygon fill="#f0f0f0" stroke="black" points="1954.5,-769 1688.5,-769 1688.5,-709 1954.5,-709 1954.5,-769"/>
<text text-anchor="middle" x="1821.5" y="-745.8" font-family="Helvetica,sans-Serif" font-size="24.00">iOS App Deployment</text>
<text text-anchor="middle" x="1821.5" y="-719.8" font-family="Helvetica,sans-Serif" font-size="24.00">(iPhone)</text>
</g>
<!-- A3&#45;&gt;C3_3 -->
<g id="edge18" class="edge">
<title>A3&#45;&gt;C3_3</title>
<path fill="none" stroke="Green" stroke-width="3" d="M1502.36,-173.23C1505.44,-175.92 1508.33,-178.84 1511,-182 1542.52,-219.3 1508.15,-356.84 1529,-401 1565.5,-478.31 1610.46,-470.87 1667,-535 1715.26,-589.74 1764.94,-658.46 1794.25,-700.53"/>
<polygon fill="Green" stroke="Green" stroke-width="3" points="1791.44,-702.61 1800.01,-708.83 1797.19,-698.62 1791.44,-702.61"/>
</g>
<!-- C3_4 -->
<g id="node20" class="node">
<title>C3_4</title>
<polygon fill="#f0f0f0" stroke="black" points="1958,-288 1685,-288 1685,-230 1958,-230 1958,-288"/>
<text text-anchor="middle" x="1821.5" y="-252.8" font-family="Helvetica,sans-Serif" font-size="24.00">iOS Simulator Testing</text>
</g>
<!-- A3&#45;&gt;C3_4 -->
<g id="edge19" class="edge">
<title>A3&#45;&gt;C3_4</title>
<path fill="none" stroke="Green" stroke-width="3" d="M1488.62,-173.08C1496.29,-175.83 1503.81,-178.8 1511,-182 1519.78,-185.91 1520.16,-190.22 1529,-194 1574.74,-213.54 1627.13,-227.56 1674.77,-237.46"/>
<polygon fill="Green" stroke="Green" stroke-width="3" points="1674.36,-240.95 1684.85,-239.51 1675.75,-234.09 1674.36,-240.95"/>
</g>
<!-- C3_5 -->
<g id="node21" class="node">
<title>C3_5</title>
<polygon fill="#f0f0f0" stroke="black" points="1929,-212 1714,-212 1714,-154 1929,-154 1929,-212"/>
<text text-anchor="middle" x="1821.5" y="-176.8" font-family="Helvetica,sans-Serif" font-size="24.00">Offline Inference</text>
</g>
<!-- A3&#45;&gt;C3_5 -->
<g id="edge20" class="edge">
<title>A3&#45;&gt;C3_5</title>
<path fill="none" stroke="Green" stroke-width="3" d="M1510.23,-156.61C1572.93,-161.94 1644.9,-168.06 1703.74,-173.07"/>
<polygon fill="Green" stroke="Green" stroke-width="3" points="1703.55,-176.56 1713.81,-173.93 1704.14,-169.59 1703.55,-176.56"/>
<text text-anchor="middle" x="1598" y="-175.6" font-family="Times,serif" font-size="18.00">KEY FEATURE</text>
</g>
<!-- C3_6 -->
<g id="node22" class="node">
<title>C3_6</title>
<polygon fill="#f0f0f0" stroke="black" points="1942.5,-407 1700.5,-407 1700.5,-347 1942.5,-347 1942.5,-407"/>
<text text-anchor="middle" x="1821.5" y="-383.8" font-family="Helvetica,sans-Serif" font-size="24.00">CI/CD/CT Workflow</text>
<text text-anchor="middle" x="1821.5" y="-357.8" font-family="Helvetica,sans-Serif" font-size="24.00">(Terminal&#45;driven)</text>
</g>
<!-- A3&#45;&gt;C3_6 -->
<g id="edge21" class="edge">
<title>A3&#45;&gt;C3_6</title>
<path fill="none" stroke="Green" stroke-width="3" d="M1499.59,-173.18C1503.59,-175.87 1507.41,-178.8 1511,-182 1527.71,-196.87 1514.03,-212.38 1529,-229 1577.5,-282.83 1650.13,-319.78 1710.75,-343.3"/>
<polygon fill="Green" stroke="Green" stroke-width="3" points="1709.78,-346.67 1720.37,-346.96 1712.27,-340.13 1709.78,-346.67"/>
</g>
<!-- C4_1 -->
<g id="node23" class="node">
<title>C4_1</title>
<polygon fill="#f0f0f0" stroke="black" points="1461.5,-795 1260.5,-795 1260.5,-735 1461.5,-735 1461.5,-795"/>
<text text-anchor="middle" x="1361" y="-771.8" font-family="Helvetica,sans-Serif" font-size="24.00">Swift / C++</text>
<text text-anchor="middle" x="1361" y="-745.8" font-family="Helvetica,sans-Serif" font-size="24.00">Interoperability</text>
</g>
<!-- A4&#45;&gt;C4_1 -->
<g id="edge22" class="edge">
<title>A4&#45;&gt;C4_1</title>
<path fill="none" stroke="Green" stroke-width="3" d="M884.72,-523.07C947.87,-571.73 1082.69,-669.87 1211,-726 1223.52,-731.48 1236.98,-736.32 1250.5,-740.56"/>
<polygon fill="Green" stroke="Green" stroke-width="3" points="1249.76,-744 1260.34,-743.55 1251.79,-737.3 1249.76,-744"/>
<text text-anchor="middle" x="1092.5" y="-722.6" font-family="Times,serif" font-size="18.00">CORE SKILL</text>
</g>
<!-- C4_2 -->
<g id="node24" class="node">
<title>C4_2</title>
<polygon fill="#f0f0f0" stroke="black" points="1459,-485 1263,-485 1263,-425 1459,-425 1459,-485"/>
<text text-anchor="middle" x="1361" y="-461.8" font-family="Helvetica,sans-Serif" font-size="24.00">ONNX Runtime</text>
<text text-anchor="middle" x="1361" y="-435.8" font-family="Helvetica,sans-Serif" font-size="24.00">C++ API</text>
</g>
<!-- A4&#45;&gt;C4_2 -->
<g id="edge23" class="edge">
<title>A4&#45;&gt;C4_2</title>
<path fill="none" stroke="Green" stroke-width="3" d="M966.11,-485C1052.52,-478.42 1168.81,-469.56 1252.61,-463.18"/>
<polygon fill="Green" stroke="Green" stroke-width="3" points="1252.96,-466.66 1262.66,-462.41 1252.42,-459.68 1252.96,-466.66"/>
</g>
<!-- C4_3 -->
<g id="node25" class="node">
<title>C4_3</title>
<polygon fill="#f0f0f0" stroke="black" points="1460,-329 1262,-329 1262,-269 1460,-269 1460,-329"/>
<text text-anchor="middle" x="1361" y="-305.8" font-family="Helvetica,sans-Serif" font-size="24.00">Swift Package</text>
<text text-anchor="middle" x="1361" y="-279.8" font-family="Helvetica,sans-Serif" font-size="24.00">Manager (SPM)</text>
</g>
<!-- A4&#45;&gt;C4_3 -->
<g id="edge24" class="edge">
<title>A4&#45;&gt;C4_3</title>
<path fill="none" stroke="Green" stroke-width="3" d="M896.31,-464.91C923.8,-449.01 959.19,-429.65 992,-415 1086.21,-372.94 1112.34,-368.2 1211,-338 1224.17,-333.97 1238.07,-329.98 1251.87,-326.18"/>
<polygon fill="Green" stroke="Green" stroke-width="3" points="1253.17,-329.46 1261.9,-323.45 1251.33,-322.7 1253.17,-329.46"/>
</g>
<!-- C4_4 -->
<g id="node26" class="node">
<title>C4_4</title>
<polygon fill="#f0f0f0" stroke="black" points="1510.5,-251 1211.5,-251 1211.5,-191 1510.5,-191 1510.5,-251"/>
<text text-anchor="middle" x="1361" y="-227.8" font-family="Helvetica,sans-Serif" font-size="24.00">Parsing &amp; Visualizing</text>
<text text-anchor="middle" x="1361" y="-201.8" font-family="Helvetica,sans-Serif" font-size="24.00">.pbxproj (Xcode Config)</text>
</g>
<!-- A4&#45;&gt;C4_4 -->
<g id="edge25" class="edge">
<title>A4&#45;&gt;C4_4</title>
<path fill="none" stroke="Green" stroke-width="3" d="M868.78,-464.79C894.31,-430.81 940.6,-375.04 992,-341 1054.74,-299.44 1133.02,-271.28 1201.23,-252.75"/>
<polygon fill="Green" stroke="Green" stroke-width="3" points="1202.46,-256.04 1211.22,-250.08 1200.65,-249.28 1202.46,-256.04"/>
</g>
<!-- C4_5 -->
<g id="node27" class="node">
<title>C4_5</title>
<polygon fill="#f0f0f0" stroke="black" points="1511,-641 1211,-641 1211,-581 1511,-581 1511,-641"/>
<text text-anchor="middle" x="1361" y="-617.8" font-family="Helvetica,sans-Serif" font-size="24.00">PlantUML Diagramming</text>
<text text-anchor="middle" x="1361" y="-591.8" font-family="Helvetica,sans-Serif" font-size="24.00">(Docs)</text>
</g>
<!-- A4&#45;&gt;C4_5 -->
<g id="edge26" class="edge">
<title>A4&#45;&gt;C4_5</title>
<path fill="none" stroke="Green" stroke-width="3" d="M966.27,-521.11C974.97,-523.1 983.62,-525.08 992,-527 1066.74,-544.09 1150.03,-563.11 1218.44,-578.72"/>
<polygon fill="Green" stroke="Green" stroke-width="3" points="1217.89,-582.18 1228.42,-580.99 1219.45,-575.36 1217.89,-582.18"/>
</g>
<!-- C4_6 -->
<g id="node28" class="node">
<title>C4_6</title>
<polygon fill="#f0f0f0" stroke="black" points="1449,-563 1273,-563 1273,-503 1449,-503 1449,-563"/>
<text text-anchor="middle" x="1361" y="-539.8" font-family="Helvetica,sans-Serif" font-size="24.00">Git &amp; Docs</text>
<text text-anchor="middle" x="1361" y="-513.8" font-family="Helvetica,sans-Serif" font-size="24.00">Management</text>
</g>
<!-- A4&#45;&gt;C4_6 -->
<g id="edge27" class="edge">
<title>A4&#45;&gt;C4_6</title>
<path fill="none" stroke="Green" stroke-width="3" d="M966.11,-503C1056.07,-509.85 1178.41,-519.17 1262.76,-525.59"/>
<polygon fill="Green" stroke="Green" stroke-width="3" points="1262.62,-529.09 1272.85,-526.36 1263.15,-522.11 1262.62,-529.09"/>
</g>
<!-- C4_7 -->
<g id="node29" class="node">
<title>C4_7</title>
<polygon fill="#f0f0f0" stroke="black" points="1462,-407 1260,-407 1260,-347 1462,-347 1462,-407"/>
<text text-anchor="middle" x="1361" y="-383.8" font-family="Helvetica,sans-Serif" font-size="24.00">xcodebuild Tool</text>
<text text-anchor="middle" x="1361" y="-357.8" font-family="Helvetica,sans-Serif" font-size="24.00">(CLI Control)</text>
</g>
<!-- A4&#45;&gt;C4_7 -->
<g id="edge28" class="edge">
<title>A4&#45;&gt;C4_7</title>
<path fill="none" stroke="Green" stroke-width="3" d="M966.11,-467.01C1051.61,-447.47 1166.38,-421.25 1249.96,-402.15"/>
<polygon fill="Green" stroke="Green" stroke-width="3" points="1250.77,-405.55 1259.74,-399.91 1249.21,-398.73 1250.77,-405.55"/>
</g>
<!-- C1_4&#45;&gt;C2_3 -->
<g id="edge29" class="edge">
<title>C1_4&#45;&gt;C2_3</title>
<path fill="none" stroke="Green" stroke-width="3" d="M1439,-1044.95C1519.76,-1014.47 1646.54,-966.64 1731.53,-934.57"/>
<polygon fill="Green" stroke="Green" stroke-width="3" points="1732.78,-937.84 1740.9,-931.03 1730.31,-931.29 1732.78,-937.84"/>
<text text-anchor="middle" x="1598" y="-1013.6" font-family="Times,serif" font-size="18.00">FEEDS</text>
</g>
<!-- C1_5&#45;&gt;C2_4 -->
<g id="edge30" class="edge">
<title>C1_5&#45;&gt;C2_4</title>
<path fill="none" stroke="Green" stroke-width="3" d="M1489.55,-1433.99C1496.95,-1430.97 1504.16,-1427.65 1511,-1424 1627.5,-1361.95 1736.61,-1247.82 1788.63,-1188.71"/>
<polygon fill="Green" stroke="Green" stroke-width="3" points="1791.35,-1190.92 1795.29,-1181.09 1786.07,-1186.32 1791.35,-1190.92"/>
<text text-anchor="middle" x="1598" y="-1418.6" font-family="Times,serif" font-size="18.00">FEEDS</text>
</g>
<!-- C2_1&#45;&gt;C3_3 -->
<g id="edge32" class="edge">
<title>C2_1&#45;&gt;C3_3</title>
<path fill="none" stroke="Green" stroke-width="3" d="M1453.81,-834.79C1514.91,-828.03 1596.59,-816.48 1667,-798 1692.11,-791.41 1718.75,-782.06 1742.66,-772.74"/>
<polygon fill="Green" stroke="Green" stroke-width="3" points="1744.02,-775.96 1752.03,-769.03 1741.44,-769.45 1744.02,-775.96"/>
<text text-anchor="middle" x="1598" y="-830.6" font-family="Times,serif" font-size="18.00">BUILDS</text>
</g>
<!-- C2_5&#45;&gt;C3_6 -->
<g id="edge34" class="edge">
<title>C2_5&#45;&gt;C3_6</title>
<path fill="none" stroke="Green" stroke-width="3" d="M1491.84,-658.95C1498.44,-656.22 1504.86,-653.24 1511,-650 1627.7,-588.31 1736.72,-474.03 1788.68,-414.8"/>
<polygon fill="Green" stroke="Green" stroke-width="3" points="1791.4,-417 1795.33,-407.16 1786.12,-412.4 1791.4,-417"/>
<text text-anchor="middle" x="1598" y="-645.6" font-family="Times,serif" font-size="18.00">VALIDATES</text>
</g>
<!-- C4_1&#45;&gt;C2_3 -->
<g id="edge31" class="edge">
<title>C4_1&#45;&gt;C2_3</title>
<path fill="none" stroke="Green" stroke-width="3" d="M1461.64,-751.91C1522.82,-747.73 1601.69,-749.39 1667,-774 1715.64,-792.33 1760.06,-832.89 1788.46,-863.28"/>
<polygon fill="Green" stroke="Green" stroke-width="3" points="1785.99,-865.76 1795.33,-870.77 1791.15,-861.03 1785.99,-865.76"/>
<text text-anchor="middle" x="1598" y="-779.6" font-family="Times,serif" font-size="18.00">ENABLES</text>
</g>
<!-- C4_7&#45;&gt;C3_6 -->
<g id="edge33" class="edge">
<title>C4_7&#45;&gt;C3_6</title>
<path fill="none" stroke="Green" stroke-width="3" d="M1462.05,-377C1528.99,-377 1617.76,-377 1690.2,-377"/>
<polygon fill="Green" stroke="Green" stroke-width="3" points="1690.31,-380.5 1700.31,-377 1690.31,-373.5 1690.31,-380.5"/>
<text text-anchor="middle" x="1598" y="-382.6" font-family="Times,serif" font-size="18.00">SUPPORTS</text>
</g>
</g>
</svg>
